<svg width="12" height="12" viewBox="0 0 12 12" fill="none" xmlns="http://www.w3.org/2000/svg">
<path d="M10.6552 3.43933L8.56079 1.34449C8.49114 1.27482 8.40845 1.21956 8.31745 1.18186C8.22644 1.14416 8.1289 1.12476 8.03039 1.12476C7.93189 1.12476 7.83435 1.14416 7.74334 1.18186C7.65234 1.21956 7.56965 1.27482 7.5 1.34449L1.71985 7.12511C1.6499 7.1945 1.59444 7.27711 1.5567 7.36812C1.51896 7.45913 1.49969 7.55674 1.5 7.65527V9.75011C1.5 9.94902 1.57902 10.1398 1.71967 10.2804C1.86033 10.4211 2.05109 10.5001 2.25 10.5001H4.34485C4.44338 10.5004 4.54098 10.4812 4.632 10.4434C4.72301 10.4057 4.80561 10.3502 4.875 10.2803L10.6552 4.50011C10.7248 4.43047 10.7801 4.34778 10.8178 4.25677C10.8555 4.16577 10.8749 4.06823 10.8749 3.96972C10.8749 3.87122 10.8555 3.77367 10.8178 3.68267C10.7801 3.59166 10.7248 3.50898 10.6552 3.43933ZM9 5.09449L6.90516 3.00011L8.03016 1.87511L10.125 3.96949L9 5.09449Z" fill="#86489C"/>
</svg>
