<svg width="20" height="22" viewBox="0 0 20 22" fill="none" xmlns="http://www.w3.org/2000/svg">
<path d="M18.125 2.25H15.6875V1.4375C15.6875 1.22201 15.6019 1.01535 15.4495 0.862976C15.2972 0.710602 15.0905 0.625 14.875 0.625C14.6595 0.625 14.4528 0.710602 14.3005 0.862976C14.1481 1.01535 14.0625 1.22201 14.0625 1.4375V2.25H5.9375V1.4375C5.9375 1.22201 5.8519 1.01535 5.69952 0.862976C5.54715 0.710602 5.34049 0.625 5.125 0.625C4.90951 0.625 4.70285 0.710602 4.55048 0.862976C4.3981 1.01535 4.3125 1.22201 4.3125 1.4375V2.25H1.875C1.44402 2.25 1.0307 2.4212 0.725951 2.72595C0.421205 3.0307 0.25 3.44402 0.25 3.875V20.125C0.25 20.556 0.421205 20.9693 0.725951 21.274C1.0307 21.5788 1.44402 21.75 1.875 21.75H18.125C18.556 21.75 18.9693 21.5788 19.274 21.274C19.5788 20.9693 19.75 20.556 19.75 20.125V3.875C19.75 3.44402 19.5788 3.0307 19.274 2.72595C18.9693 2.4212 18.556 2.25 18.125 2.25ZM4.3125 5.5V4.6875C4.3125 4.47201 4.3981 4.26535 4.55048 4.11298C4.70285 3.9606 4.90951 3.875 5.125 3.875C5.34049 3.875 5.54715 3.9606 5.69952 4.11298C5.8519 4.26535 5.9375 4.47201 5.9375 4.6875V5.5C5.9375 5.71549 5.8519 5.92215 5.69952 6.07452C5.54715 6.2269 5.34049 6.3125 5.125 6.3125C4.90951 6.3125 4.70285 6.2269 4.55048 6.07452C4.3981 5.92215 4.3125 5.71549 4.3125 5.5ZM12.6975 15.968C11.9193 16.6127 11.0762 17.1746 10.1818 17.6448C10.1254 17.6731 10.0631 17.6878 10 17.6878C9.93689 17.6878 9.87464 17.6731 9.8182 17.6448C8.92378 17.1746 8.08068 16.6127 7.3025 15.968C5.58813 14.5391 4.71875 13.0674 4.71875 11.5938C4.71902 10.9721 4.92298 10.3677 5.29941 9.87297C5.67584 9.37826 6.20401 9.02053 6.80307 8.85452C7.40214 8.68851 8.0391 8.72337 8.61647 8.95376C9.19384 9.18416 9.67981 9.5974 10 10.1302C10.3202 9.5974 10.8062 9.18416 11.3835 8.95376C11.9609 8.72337 12.5979 8.68851 13.1969 8.85452C13.796 9.02053 14.3242 9.37826 14.7006 9.87297C15.077 10.3677 15.281 10.9721 15.2812 11.5938C15.2812 13.0674 14.4119 14.5391 12.6975 15.968ZM15.6875 5.5C15.6875 5.71549 15.6019 5.92215 15.4495 6.07452C15.2972 6.2269 15.0905 6.3125 14.875 6.3125C14.6595 6.3125 14.4528 6.2269 14.3005 6.07452C14.1481 5.92215 14.0625 5.71549 14.0625 5.5V4.6875C14.0625 4.47201 14.1481 4.26535 14.3005 4.11298C14.4528 3.9606 14.6595 3.875 14.875 3.875C15.0905 3.875 15.2972 3.9606 15.4495 4.11298C15.6019 4.26535 15.6875 4.47201 15.6875 4.6875V5.5Z" fill="#AA70BF"/>
</svg>
