<svg width="22" height="23" viewBox="0 0 22 23" fill="none" xmlns="http://www.w3.org/2000/svg">
<path d="M11.0004 0.9375C9.17676 0.937102 7.38414 1.40884 5.79695 2.3068C4.20977 3.20475 2.8821 4.49833 1.94318 6.06163C1.00426 7.62493 0.486076 9.40469 0.439059 11.2277C0.392042 13.0507 0.817797 14.8548 1.67488 16.4644L0.522149 19.9226C0.426665 20.2089 0.412808 20.5162 0.482131 20.8099C0.551455 21.1037 0.701219 21.3723 0.914639 21.5857C1.12806 21.7991 1.3967 21.9489 1.69045 22.0182C1.9842 22.0875 2.29146 22.0737 2.57777 21.9782L6.03598 20.8255C7.45254 21.5789 9.02213 21.9997 10.6256 22.056C12.2291 22.1123 13.8243 21.8025 15.2902 21.1502C16.7561 20.4979 18.0541 19.5202 19.0858 18.2914C20.1174 17.0625 20.8555 15.6148 21.2441 14.0581C21.6327 12.5014 21.6615 10.8766 21.3284 9.3071C20.9953 7.73759 20.309 6.26459 19.3216 4.99991C18.3342 3.73524 17.0717 2.71212 15.6299 2.00823C14.1881 1.30433 12.6048 0.938158 11.0004 0.9375ZM14.2504 13.9375H7.75035C7.53486 13.9375 7.3282 13.8519 7.17583 13.6995C7.02345 13.5472 6.93785 13.3405 6.93785 13.125C6.93785 12.9095 7.02345 12.7028 7.17583 12.5505C7.3282 12.3981 7.53486 12.3125 7.75035 12.3125H14.2504C14.4658 12.3125 14.6725 12.3981 14.8249 12.5505C14.9773 12.7028 15.0629 12.9095 15.0629 13.125C15.0629 13.3405 14.9773 13.5472 14.8249 13.6995C14.6725 13.8519 14.4658 13.9375 14.2504 13.9375ZM14.2504 10.6875H7.75035C7.53486 10.6875 7.3282 10.6019 7.17583 10.4495C7.02345 10.2972 6.93785 10.0905 6.93785 9.875C6.93785 9.65951 7.02345 9.45285 7.17583 9.30048C7.3282 9.1481 7.53486 9.0625 7.75035 9.0625H14.2504C14.4658 9.0625 14.6725 9.1481 14.8249 9.30048C14.9773 9.45285 15.0629 9.65951 15.0629 9.875C15.0629 10.0905 14.9773 10.2972 14.8249 10.4495C14.6725 10.6019 14.4658 10.6875 14.2504 10.6875Z" fill="#AA70BF"/>
</svg>
