<svg width="21" height="21" viewBox="0 0 21 21" fill="none" xmlns="http://www.w3.org/2000/svg">
<path d="M20.0862 5.45143L15.5484 0.912606C15.3975 0.761672 15.2183 0.641942 15.0211 0.560255C14.824 0.478568 14.6126 0.436523 14.3992 0.436523C14.1858 0.436523 13.9744 0.478568 13.7772 0.560255C13.5801 0.641942 13.4009 0.761672 13.25 0.912606L0.726336 13.4373C0.574784 13.5876 0.45463 13.7666 0.372857 13.9638C0.291085 14.161 0.249326 14.3725 0.250008 14.586V19.1248C0.250008 19.5558 0.421213 19.9691 0.72596 20.2738C1.03071 20.5786 1.44403 20.7498 1.87501 20.7498H6.41384C6.62731 20.7505 6.8388 20.7087 7.03599 20.6269C7.23319 20.5452 7.41216 20.425 7.56251 20.2735L20.0862 7.74979C20.2371 7.59889 20.3568 7.41974 20.4385 7.22256C20.5202 7.02538 20.5623 6.81404 20.5623 6.60061C20.5623 6.38718 20.5202 6.17585 20.4385 5.97867C20.3568 5.78149 20.2371 5.60233 20.0862 5.45143ZM16.5 9.03761L11.9612 4.49979L14.3987 2.06229L18.9375 6.60011L16.5 9.03761Z" fill="#AA70BF"/>
</svg>
