<svg width="22" height="20" viewBox="0 0 22 20" fill="none" xmlns="http://www.w3.org/2000/svg">
<path d="M21.1367 2.78031L21.1286 2.78945L14.2497 10.1345V15.7702C14.2501 16.0382 14.1842 16.3022 14.0579 16.5386C13.9315 16.7749 13.7487 16.9764 13.5256 17.125L10.2756 19.2923C10.0307 19.4555 9.74605 19.5491 9.45211 19.5631C9.15817 19.5771 8.86594 19.511 8.60662 19.3719C8.34729 19.2328 8.13061 19.0259 7.97969 18.7733C7.82877 18.5206 7.74929 18.2318 7.74973 17.9375V10.1345L0.870901 2.78945L0.862776 2.78031C0.651269 2.54755 0.511853 2.2584 0.461441 1.94796C0.41103 1.63752 0.451789 1.31912 0.578774 1.03139C0.705759 0.743658 0.913513 0.498958 1.17683 0.326975C1.44015 0.154993 1.74772 0.0631197 2.06223 0.0625H19.9372C20.252 0.0625306 20.56 0.153978 20.8238 0.325731C21.0875 0.497484 21.2958 0.742149 21.4231 1.03C21.5505 1.31785 21.5915 1.63649 21.5412 1.94721C21.4909 2.25793 21.3514 2.54735 21.1397 2.78031H21.1367Z" fill="#AA70BF"/>
</svg>
