<svg width="24" height="20" viewBox="0 0 24 20" fill="none" xmlns="http://www.w3.org/2000/svg">
<path d="M23.375 6.35938C23.375 13.4688 12.8338 19.2233 12.3849 19.4609C12.2666 19.5246 12.1344 19.5579 12 19.5579C11.8656 19.5579 11.7334 19.5246 11.6151 19.4609C11.1662 19.2233 0.625 13.4688 0.625 6.35938C0.626882 4.68992 1.2909 3.08938 2.47139 1.90889C3.65188 0.728405 5.25242 0.0643817 6.92188 0.0625C9.01914 0.0625 10.8554 0.964375 12 2.48883C13.1446 0.964375 14.9809 0.0625 17.0781 0.0625C18.7476 0.0643817 20.3481 0.728405 21.5286 1.90889C22.7091 3.08938 23.3731 4.68992 23.375 6.35938Z" fill="#AA70BF"/>
</svg>
