<svg width="18" height="18" viewBox="0 0 18 18" fill="none" xmlns="http://www.w3.org/2000/svg">
<path d="M9.37499 17.0086L17.1336 9.25001C17.2502 9.13435 17.3426 8.99668 17.4055 8.84499C17.4684 8.69331 17.5005 8.53063 17.5 8.36641L17.5 1.12501C17.5 0.959246 17.4341 0.800275 17.3169 0.683065C17.1997 0.565854 17.0408 0.500006 16.875 0.500006L9.63359 0.500006C9.46937 0.499481 9.30669 0.531603 9.15501 0.594505C9.00332 0.657407 8.86565 0.749834 8.74999 0.866412L0.991399 8.62501C0.875295 8.74108 0.783195 8.8789 0.720358 9.03057C0.657522 9.18225 0.625181 9.34481 0.625181 9.50899C0.625181 9.67317 0.657522 9.83574 0.720357 9.98741C0.783195 10.1391 0.875295 10.2769 0.991399 10.393L7.60702 17.0086C7.7231 17.1247 7.86091 17.2168 8.01259 17.2796C8.16426 17.3425 8.32683 17.3748 8.49101 17.3748C8.65518 17.3748 8.81775 17.3425 8.96943 17.2796C9.1211 17.2168 9.25892 17.1247 9.37499 17.0086ZM12.5 4.56251C12.5 4.37709 12.555 4.19583 12.658 4.04166C12.761 3.88749 12.9074 3.76733 13.0787 3.69637C13.25 3.62541 13.4385 3.60685 13.6204 3.64302C13.8022 3.67919 13.9693 3.76848 14.1004 3.89959C14.2315 4.03071 14.3208 4.19775 14.357 4.37961C14.3932 4.56147 14.3746 4.74997 14.3036 4.92127C14.2327 5.09258 14.1125 5.239 13.9583 5.34201C13.8042 5.44502 13.6229 5.50001 13.4375 5.50001C13.1889 5.50001 12.9504 5.40123 12.7746 5.22542C12.5988 5.0496 12.5 4.81115 12.5 4.56251Z" fill="#B2D6A8"/>
</svg>
