<svg width="24" height="24" viewBox="0 0 24 24" fill="none" xmlns="http://www.w3.org/2000/svg">
<path d="M20.2497 3H14.2497C14.1348 2.99999 14.0215 3.02636 13.9185 3.07707C13.8154 3.12778 13.7254 3.20149 13.6553 3.2925L7.65532 11.0934L6.7497 10.1897C6.61039 10.0502 6.44495 9.93958 6.26286 9.8641C6.08076 9.78861 5.88557 9.74976 5.68845 9.74976C5.49132 9.74976 5.29613 9.78861 5.11403 9.8641C4.93194 9.93958 4.7665 10.0502 4.6272 10.1897L3.81251 11.0053C3.67318 11.1446 3.56266 11.31 3.48726 11.492C3.41186 11.674 3.37305 11.8691 3.37305 12.0661C3.37305 12.2631 3.41186 12.4582 3.48726 12.6402C3.56266 12.8222 3.67318 12.9876 3.81251 13.1269L5.87501 15.1894L2.87501 18.1894C2.73568 18.3287 2.62516 18.494 2.54976 18.6761C2.47436 18.8581 2.43555 19.0531 2.43555 19.2502C2.43555 19.4472 2.47436 19.6423 2.54976 19.8243C2.62516 20.0063 2.73568 20.1716 2.87501 20.3109L3.6897 21.1247C3.97097 21.4058 4.35235 21.5637 4.75001 21.5637C5.14766 21.5637 5.52904 21.4058 5.81032 21.1247L8.81032 18.1247L10.8728 20.1872C11.0121 20.3267 11.1776 20.4373 11.3597 20.5128C11.5418 20.5883 11.7369 20.6271 11.9341 20.6271C12.1312 20.6271 12.3264 20.5883 12.5085 20.5128C12.6906 20.4373 12.856 20.3267 12.9953 20.1872L13.81 19.3716C13.9493 19.2323 14.0599 19.0669 14.1353 18.8849C14.2107 18.7029 14.2495 18.5078 14.2495 18.3108C14.2495 18.1138 14.2107 17.9187 14.1353 17.7367C14.0599 17.5547 13.9493 17.3893 13.81 17.25L12.9063 16.3463L20.7072 10.3463C20.7985 10.276 20.8723 10.1857 20.923 10.0823C20.9738 9.97887 21 9.86517 20.9997 9.75V3.75C20.9997 3.55109 20.9207 3.36032 20.78 3.21967C20.6394 3.07902 20.4486 3 20.2497 3ZM19.4997 9.38062L11.8366 15.2756L10.8109 14.25L15.5303 9.53063C15.6709 9.38989 15.7499 9.19907 15.7498 9.00014C15.7497 8.8012 15.6706 8.61045 15.5299 8.46984C15.3891 8.32924 15.1983 8.2503 14.9994 8.25038C14.8004 8.25047 14.6097 8.32958 14.4691 8.47031L9.74969 13.1887L8.72501 12.1631L14.6191 4.5H19.4997V9.38062Z" fill="#422748"/>
</svg>
