<svg width="24" height="24" viewBox="0 0 24 24" fill="none" xmlns="http://www.w3.org/2000/svg">
<path d="M11.9997 7.12501C12.8155 7.12501 13.613 7.36694 14.2914 7.8202C14.9697 8.27346 15.4984 8.9177 15.8107 9.67144C16.1229 10.4252 16.2046 11.2546 16.0454 12.0548C15.8862 12.8549 15.4934 13.5899 14.9165 14.1668C14.3396 14.7437 13.6046 15.1366 12.8044 15.2957C12.0042 15.4549 11.1748 15.3732 10.4211 15.061C9.66734 14.7488 9.02311 14.2201 8.56985 13.5417C8.11659 12.8634 7.87466 12.0659 7.87466 11.25C7.87466 10.156 8.30926 9.10678 9.08284 8.33319C9.85643 7.55961 10.9056 7.12501 11.9997 7.12501ZM16.4997 6.00001H17.9997V7.50001C17.9997 7.69892 18.0787 7.88969 18.2193 8.03034C18.36 8.17099 18.5507 8.25001 18.7497 8.25001C18.9486 8.25001 19.1393 8.17099 19.28 8.03034C19.4206 7.88969 19.4997 7.69892 19.4997 7.50001V6.00001H20.9997C21.1986 6.00001 21.3893 5.92099 21.53 5.78034C21.6706 5.63969 21.7497 5.44892 21.7497 5.25001C21.7497 5.0511 21.6706 4.86033 21.53 4.71968C21.3893 4.57903 21.1986 4.50001 20.9997 4.50001H19.4997V3.00001C19.4997 2.8011 19.4206 2.61033 19.28 2.46968C19.1393 2.32903 18.9486 2.25001 18.7497 2.25001C18.5507 2.25001 18.36 2.32903 18.2193 2.46968C18.0787 2.61033 17.9997 2.8011 17.9997 3.00001V4.50001H16.4997C16.3007 4.50001 16.11 4.57903 15.9693 4.71968C15.8287 4.86033 15.7497 5.0511 15.7497 5.25001C15.7497 5.44892 15.8287 5.63969 15.9693 5.78034C16.11 5.92099 16.3007 6.00001 16.4997 6.00001ZM20.7512 9.76032C20.555 9.79315 20.3799 9.90256 20.2644 10.0645C20.1489 10.2264 20.1025 10.4276 20.1353 10.6238C20.2114 11.0786 20.2497 11.5389 20.2497 12C20.2514 14.0196 19.5092 15.969 18.1647 17.4759C17.6191 16.6853 16.9265 16.007 16.1247 15.4781C16.0562 15.4327 15.9747 15.4111 15.8927 15.4165C15.8107 15.4219 15.7328 15.4541 15.6709 15.5081C14.6519 16.3898 13.3495 16.8751 12.002 16.8751C10.6545 16.8751 9.35209 16.3898 8.3331 15.5081C8.27083 15.453 8.192 15.4201 8.10901 15.4147C8.02602 15.4093 7.94358 15.4316 7.87466 15.4781C7.07156 16.0065 6.37794 16.6848 5.83185 17.4759C4.77674 16.287 4.08758 14.8185 3.84728 13.2472C3.60698 11.6758 3.82576 10.0685 4.4773 8.61854C5.12885 7.16858 6.18541 5.93773 7.51992 5.07403C8.85442 4.21033 10.41 3.75055 11.9997 3.75001C12.4608 3.74994 12.9211 3.78819 13.3759 3.86439C13.5712 3.8952 13.7708 3.84766 13.9312 3.73209C14.0916 3.61653 14.1999 3.4423 14.2325 3.24731C14.2651 3.05231 14.2195 2.85232 14.1054 2.69083C13.9913 2.52935 13.8181 2.41944 13.6234 2.38501C11.5866 2.04237 9.49367 2.35589 7.64669 3.2803C5.79972 4.20471 4.29431 5.69218 3.34783 7.52795C2.40135 9.36371 2.06277 11.4528 2.38098 13.4935C2.69919 15.5342 3.65772 17.421 5.11817 18.8815C6.57863 20.342 8.46543 21.3005 10.5062 21.6187C12.5469 21.9369 14.636 21.5983 16.4717 20.6518C18.3075 19.7054 19.795 18.2 20.7194 16.353C21.6438 14.506 21.9573 12.413 21.6147 10.3763C21.5818 10.1801 21.4724 10.005 21.3105 9.88948C21.1486 9.77397 20.9474 9.72751 20.7512 9.76032Z" fill="#D5B0E4"/>
</svg>
