<svg width="18" height="23" viewBox="0 0 18 23" fill="none" xmlns="http://www.w3.org/2000/svg">
<path d="M13.8041 4.95227L13.1704 1.46055C13.1026 1.08594 12.9054 0.747023 12.6132 0.50294C12.3211 0.258857 11.9525 0.125098 11.5718 0.125H6.42866C6.04796 0.125098 5.67938 0.258857 5.38723 0.50294C5.09507 0.747023 4.89788 1.08594 4.83007 1.46055L4.19632 4.95227C3.16703 5.7058 2.32988 6.69138 1.75281 7.82903C1.17574 8.96668 0.875 10.2244 0.875 11.5C0.875 12.7756 1.17574 14.0333 1.75281 15.171C2.32988 16.3086 3.16703 17.2942 4.19632 18.0477L4.83007 21.5395C4.89788 21.9141 5.09507 22.253 5.38723 22.4971C5.67938 22.7411 6.04796 22.8749 6.42866 22.875H11.5718C11.9525 22.8749 12.3211 22.7411 12.6132 22.4971C12.9054 22.253 13.1026 21.9141 13.1704 21.5395L13.8041 18.0477C14.8334 17.2942 15.6706 16.3086 16.2476 15.171C16.8247 14.0333 17.1255 12.7756 17.1255 11.5C17.1255 10.2244 16.8247 8.96668 16.2476 7.82903C15.6706 6.69138 14.8334 5.7058 13.8041 4.95227ZM6.42866 1.75H11.5718L11.9689 3.93867C10.0611 3.18714 7.93932 3.18714 6.03155 3.93867L6.42866 1.75ZM11.5718 21.25H6.42866L6.03155 19.0613C7.93932 19.8129 10.0611 19.8129 11.9689 19.0613L11.5718 21.25ZM13.0627 12.3125H9.00023C8.78474 12.3125 8.57808 12.2269 8.4257 12.0745C8.27333 11.9222 8.18773 11.7155 8.18773 11.5V7.4375C8.18773 7.22201 8.27333 7.01535 8.4257 6.86298C8.57808 6.7106 8.78474 6.625 9.00023 6.625C9.21572 6.625 9.42238 6.7106 9.57475 6.86298C9.72713 7.01535 9.81273 7.22201 9.81273 7.4375V10.6875H13.0627C13.2782 10.6875 13.4849 10.7731 13.6373 10.9255C13.7896 11.0778 13.8752 11.2845 13.8752 11.5C13.8752 11.7155 13.7896 11.9222 13.6373 12.0745C13.4849 12.2269 13.2782 12.3125 13.0627 12.3125Z" fill="#AA70BF"/>
</svg>
