<svg width="26" height="29" viewBox="0 0 26 29" fill="none" xmlns="http://www.w3.org/2000/svg">
<path d="M9.5001 3.5C9.5001 2.80777 9.70537 2.13108 10.09 1.55551C10.4745 0.979934 11.0212 0.53133 11.6607 0.266423C12.3003 0.00151649 13.004 -0.0677952 13.6829 0.0672531C14.3619 0.202301 14.9855 0.535644 15.475 1.02513C15.9645 1.51461 16.2978 2.13825 16.4329 2.81719C16.5679 3.49612 16.4986 4.19985 16.2337 4.83939C15.9688 5.47894 15.5202 6.02556 14.9446 6.41015C14.369 6.79473 13.6923 7 13.0001 7C12.0718 7 11.1816 6.63125 10.5252 5.97487C9.86885 5.3185 9.5001 4.42826 9.5001 3.5ZM25.4501 10.5713C25.359 10.1232 25.1143 9.72104 24.7583 9.43417C24.4023 9.1473 23.9573 8.99374 23.5001 9H2.5001C2.04413 8.99998 1.60184 9.15576 1.24653 9.44154C0.891223 9.72731 0.644231 10.1259 0.546491 10.5713C0.448751 11.0167 0.506131 11.4821 0.709121 11.8904C0.912111 12.2987 1.24852 12.6253 1.6626 12.8163H1.6701L8.40635 15.7825L5.66635 26.195C5.45725 26.6734 5.44348 27.2145 5.628 27.7029C5.81251 28.1913 6.18068 28.5882 6.65385 28.8088C6.91832 28.9343 7.20735 28.9996 7.5001 29C7.87712 29.0006 8.24662 28.8945 8.56599 28.6942C8.88535 28.4938 9.14157 28.2072 9.3051 27.8675L13.0001 21.5L16.6976 27.875C16.9276 28.3428 17.3311 28.7024 17.8223 28.8771C18.3134 29.0517 18.8534 29.0277 19.3271 28.8102C19.8009 28.5926 20.1709 28.1987 20.3585 27.7123C20.5461 27.226 20.5363 26.6856 20.3314 26.2063L17.5914 15.7938L24.3414 12.8238C24.7602 12.637 25.1005 12.3095 25.303 11.898C25.5056 11.4865 25.5576 11.0171 25.4501 10.5713Z" fill="#422748"/>
</svg>
