<svg width="21" height="21" viewBox="0 0 21 21" fill="none" xmlns="http://www.w3.org/2000/svg">
<path d="M19.75 10.9999V19.1249C19.75 19.5559 19.5788 19.9692 19.274 20.274C18.9693 20.5787 18.556 20.7499 18.125 20.7499H1.875C1.44402 20.7499 1.0307 20.5787 0.725951 20.274C0.421205 19.9692 0.25 19.5559 0.25 19.1249V2.87491C0.25 2.44393 0.421205 2.0306 0.725951 1.72586C1.0307 1.42111 1.44402 1.24991 1.875 1.24991H10C10.2155 1.24991 10.4222 1.33551 10.5745 1.48788C10.7269 1.64026 10.8125 1.84692 10.8125 2.06241C10.8125 2.2779 10.7269 2.48456 10.5745 2.63693C10.4222 2.7893 10.2155 2.87491 10 2.87491H1.875V19.1249H18.125V10.9999C18.125 10.7844 18.2106 10.5778 18.363 10.4254C18.5153 10.273 18.722 10.1874 18.9375 10.1874C19.153 10.1874 19.3597 10.273 19.512 10.4254C19.6644 10.5778 19.75 10.7844 19.75 10.9999ZM20.3248 5.07475L10.5748 14.8247C10.4993 14.9002 10.4097 14.96 10.3111 15.0008C10.2124 15.0415 10.1067 15.0625 10 15.0624H6.75C6.53451 15.0624 6.32785 14.9768 6.17548 14.8244C6.0231 14.6721 5.9375 14.4654 5.9375 14.2499V10.9999C5.93742 10.8932 5.95836 10.7875 5.99914 10.6888C6.03992 10.5902 6.09973 10.5006 6.17516 10.4251L15.9252 0.675063C16.0006 0.59952 16.0902 0.53959 16.1889 0.498702C16.2875 0.457813 16.3932 0.436768 16.5 0.436768C16.6068 0.436768 16.7125 0.457813 16.8111 0.498702C16.9098 0.53959 16.9994 0.59952 17.0748 0.675063L20.3248 3.92506C20.4004 4.00052 20.4603 4.09013 20.5012 4.18877C20.5421 4.2874 20.5631 4.39313 20.5631 4.49991C20.5631 4.60668 20.5421 4.71241 20.5012 4.81105C20.4603 4.90968 20.4004 4.99929 20.3248 5.07475ZM18.5983 4.49991L16.5 2.39858L15.2112 3.68741L17.3125 5.78874L18.5983 4.49991Z" fill="#AA70BF"/>
</svg>
