<svg width="26" height="19" viewBox="0 0 26 19" fill="none" xmlns="http://www.w3.org/2000/svg">
<path d="M6.51208 11.011C6.51483 11.066 6.50636 11.121 6.48718 11.1727C6.46801 11.2243 6.43852 11.2716 6.40052 11.3115C6.36251 11.3514 6.31679 11.3831 6.26613 11.4048C6.21547 11.4265 6.16093 11.4376 6.10583 11.4375H1.62489C1.4415 11.4378 1.26342 11.376 1.11959 11.2623C0.975761 11.1485 0.874651 10.9894 0.832702 10.8109C0.806581 10.6887 0.807785 10.5622 0.836228 10.4406C0.864671 10.3189 0.91965 10.205 0.997233 10.1071C1.71407 9.15642 2.66518 8.40792 3.7577 7.93464C3.27805 7.49732 2.91017 6.95143 2.68487 6.34269C2.45958 5.73395 2.38342 5.08009 2.46279 4.43587C2.54216 3.79164 2.77474 3.17582 3.14105 2.63997C3.50736 2.10412 3.99674 1.66384 4.5682 1.35601C5.13966 1.04819 5.77656 0.881773 6.42555 0.870708C7.07455 0.859642 7.71675 1.00425 8.29837 1.29242C8.87999 1.58058 9.38409 2.00392 9.76846 2.52697C10.1528 3.05002 10.4063 3.65756 10.5075 4.2987C10.5206 4.38492 10.5052 4.47305 10.4636 4.54969C10.4219 4.62632 10.3564 4.68726 10.277 4.72324C9.15005 5.24423 8.19564 6.0767 7.52639 7.12242C6.85713 8.16815 6.50096 9.38348 6.49989 10.625C6.49989 10.755 6.49989 10.883 6.51208 11.011ZM24.9965 10.106C24.2813 9.15651 23.3323 8.40841 22.2421 7.93464C22.7217 7.49732 23.0896 6.95143 23.3149 6.34269C23.5402 5.73395 23.6164 5.08009 23.537 4.43587C23.4576 3.79164 23.225 3.17582 22.8587 2.63997C22.4924 2.10412 22.003 1.66384 21.4316 1.35601C20.8601 1.04819 20.2232 0.881773 19.5742 0.870708C18.9252 0.859642 18.283 1.00425 17.7014 1.29242C17.1198 1.58058 16.6157 2.00392 16.2313 2.52697C15.847 3.05002 15.5935 3.65756 15.4922 4.2987C15.4792 4.38492 15.4946 4.47305 15.5362 4.54969C15.5778 4.62632 15.6433 4.68726 15.7228 4.72324C16.8497 5.24423 17.8041 6.0767 18.4734 7.12242C19.1426 8.16815 19.4988 9.38348 19.4999 10.625C19.4999 10.755 19.4999 10.883 19.4877 11.011C19.4849 11.066 19.4934 11.121 19.5126 11.1727C19.5318 11.2243 19.5613 11.2716 19.5993 11.3115C19.6373 11.3514 19.683 11.3831 19.7336 11.4048C19.7843 11.4265 19.8389 11.4376 19.894 11.4375H24.3749C24.5583 11.4378 24.7364 11.376 24.8802 11.2623C25.024 11.1485 25.1251 10.9894 25.1671 10.8109C25.1934 10.6885 25.1921 10.5618 25.1635 10.4399C25.1349 10.318 25.0796 10.204 25.0015 10.106H24.9965ZM15.9574 14.4915C16.7664 13.872 17.3609 13.0145 17.6574 12.0396C17.9539 11.0647 17.9374 10.0214 17.6103 9.05629C17.2832 8.09123 16.6619 7.25292 15.8338 6.65919C15.0056 6.06546 14.0123 5.74615 12.9933 5.74615C11.9743 5.74615 10.9809 6.06546 10.1528 6.65919C9.32464 7.25292 8.70336 8.09123 8.37627 9.05629C8.04918 10.0214 8.03272 11.0647 8.32919 12.0396C8.62567 13.0145 9.22019 13.872 10.0292 14.4915C8.59364 15.1135 7.39492 16.1788 6.60856 17.5313C6.53724 17.6548 6.4997 17.7949 6.49971 17.9376C6.49971 18.0802 6.53727 18.2203 6.60861 18.3439C6.67994 18.4674 6.78253 18.5699 6.90608 18.6412C7.02962 18.7125 7.16975 18.7501 7.31239 18.75H18.6874C18.83 18.7501 18.9702 18.7125 19.0937 18.6412C19.2172 18.5699 19.3198 18.4674 19.3912 18.3439C19.4625 18.2203 19.5001 18.0802 19.5001 17.9376C19.5001 17.7949 19.4625 17.6548 19.3912 17.5313C18.6032 16.1779 17.4022 15.1125 15.9645 14.4915H15.9574Z" fill="#AA70BF"/>
</svg>
