<svg width="22" height="22" viewBox="0 0 22 22" fill="none" xmlns="http://www.w3.org/2000/svg">
<path d="M19.9374 11.2195C19.9415 11.0733 19.9415 10.927 19.9374 10.7808L21.4527 8.88767C21.5322 8.78827 21.5872 8.6716 21.6133 8.54706C21.6394 8.42251 21.6359 8.29358 21.603 8.17064C21.3542 7.23702 20.9826 6.34054 20.4981 5.50462C20.4345 5.39526 20.3464 5.30223 20.2406 5.23293C20.1348 5.16364 20.0143 5.12 19.8887 5.10548L17.4796 4.83736C17.3794 4.73173 17.2778 4.63017 17.1749 4.53267L16.8905 2.11751C16.8759 1.99179 16.8321 1.87122 16.7627 1.76543C16.6932 1.65963 16.5999 1.57152 16.4904 1.50814C15.6545 1.02394 14.758 0.65303 13.8244 0.405168C13.7014 0.372323 13.5725 0.368814 13.448 0.394922C13.3234 0.42103 13.2067 0.476027 13.1073 0.555481L11.2193 2.06267C11.073 2.06267 10.9268 2.06267 10.7805 2.06267L8.88742 0.550403C8.78803 0.470949 8.67136 0.415952 8.54681 0.389844C8.42227 0.363735 8.29333 0.367245 8.17039 0.40009C7.23678 0.648946 6.34029 1.02052 5.50438 1.50509C5.39501 1.56859 5.30198 1.65675 5.23269 1.76254C5.16339 1.86833 5.11975 1.98884 5.10524 2.11447L4.83711 4.52759C4.73149 4.62848 4.62992 4.73004 4.53242 4.83228L2.11727 5.10954C1.99155 5.12417 1.87098 5.16797 1.76518 5.23744C1.65938 5.30691 1.57128 5.40015 1.50789 5.5097C1.02379 6.34573 0.652569 7.24219 0.403909 8.17572C0.371202 8.29873 0.367857 8.42771 0.394143 8.55226C0.420428 8.67681 0.475609 8.79344 0.555237 8.89275L2.06242 10.7808C2.06242 10.927 2.06242 11.0733 2.06242 11.2195L0.550159 13.1127C0.470705 13.2121 0.415708 13.3287 0.3896 13.4533C0.363491 13.5778 0.367001 13.7068 0.399846 13.8297C0.648702 14.7633 1.02027 15.6598 1.50485 16.4957C1.56835 16.6051 1.6565 16.6981 1.7623 16.7674C1.86809 16.8367 1.98859 16.8803 2.11422 16.8949L4.52328 17.163C4.62417 17.2686 4.72573 17.3702 4.82797 17.4677L5.1093 19.8828C5.12393 20.0085 5.16772 20.1291 5.2372 20.2349C5.30667 20.3407 5.3999 20.4288 5.50946 20.4922C6.34548 20.9763 7.24195 21.3475 8.17547 21.5962C8.29849 21.6289 8.42747 21.6322 8.55202 21.606C8.67656 21.5797 8.79319 21.5245 8.8925 21.4449L10.7805 19.9377C10.9268 19.9417 11.073 19.9417 11.2193 19.9377L13.1124 21.453C13.2118 21.5324 13.3285 21.5874 13.453 21.6135C13.5776 21.6396 13.7065 21.6361 13.8295 21.6033C14.7632 21.3549 15.6598 20.9833 16.4955 20.4983C16.6048 20.4348 16.6979 20.3466 16.7672 20.2408C16.8365 20.1351 16.8801 20.0145 16.8946 19.8889L17.1627 17.4799C17.2684 17.3796 17.3699 17.2781 17.4674 17.1752L19.8826 16.8908C20.0083 16.8762 20.1289 16.8324 20.2347 16.7629C20.3405 16.6934 20.4286 16.6002 20.492 16.4906C20.9761 15.6546 21.3473 14.7581 21.5959 13.8246C21.6286 13.7016 21.632 13.5726 21.6057 13.4481C21.5794 13.3235 21.5242 13.2069 21.4446 13.1076L19.9374 11.2195ZM10.9999 15.0627C10.1964 15.0627 9.411 14.8244 8.74292 14.378C8.07485 13.9316 7.55414 13.2971 7.24666 12.5548C6.93918 11.8125 6.85873 10.9957 7.01548 10.2076C7.17224 9.41957 7.55915 8.6957 8.1273 8.12755C8.69545 7.5594 9.41932 7.17248 10.2074 7.01573C10.9954 6.85898 11.8123 6.93943 12.5546 7.24691C13.2969 7.55439 13.9314 8.07509 14.3778 8.74316C14.8242 9.41124 15.0624 10.1967 15.0624 11.0002C15.0624 12.0776 14.6344 13.1109 13.8725 13.8728C13.1107 14.6347 12.0774 15.0627 10.9999 15.0627Z" fill="#AA70BF"/>
</svg>
