<svg width="22" height="22" viewBox="0 0 22 22" fill="none" xmlns="http://www.w3.org/2000/svg">
<path d="M15.4688 10.1875C15.4688 11.0713 15.2067 11.9353 14.7156 12.6702C14.2246 13.4051 13.5267 13.9779 12.7101 14.3161C11.8936 14.6543 10.995 14.7428 10.1282 14.5704C9.26134 14.398 8.46509 13.9723 7.84012 13.3474C7.21515 12.7224 6.78955 11.9262 6.61712 11.0593C6.44469 10.1925 6.53319 9.29394 6.87142 8.47738C7.20965 7.66083 7.78242 6.9629 8.5173 6.47187C9.25218 5.98084 10.1162 5.71875 11 5.71875C12.1848 5.72009 13.3206 6.19134 14.1584 7.0291C14.9962 7.86686 15.4674 9.00273 15.4688 10.1875ZM21.5625 11C21.5625 13.0891 20.943 15.1312 19.7824 16.8682C18.6218 18.6052 16.9721 19.959 15.0421 20.7585C13.1121 21.5579 10.9883 21.7671 8.93936 21.3595C6.89044 20.952 5.00838 19.946 3.53119 18.4688C2.054 16.9916 1.04802 15.1096 0.64046 13.0606C0.232904 11.0117 0.442077 8.88795 1.24153 6.95791C2.04098 5.02786 3.3948 3.37822 5.13179 2.2176C6.86879 1.05698 8.91094 0.4375 11 0.4375C13.8004 0.440457 16.4853 1.55424 18.4656 3.53445C20.4458 5.51466 21.5595 8.19956 21.5625 11ZM19.9375 11C19.9362 9.79702 19.6923 8.60667 19.2204 7.50011C18.7485 6.39356 18.0583 5.39354 17.1911 4.55985C16.3238 3.72617 15.2973 3.07595 14.173 2.64807C13.0487 2.22019 11.8497 2.02345 10.6476 2.06961C5.86399 2.25445 2.0493 6.23875 2.0625 11.0254C2.06709 13.2044 2.87076 15.3061 4.32125 16.9323C4.91196 16.0755 5.66233 15.3406 6.53125 14.768C6.60534 14.719 6.69341 14.6957 6.782 14.7016C6.87059 14.7075 6.95482 14.7422 7.0218 14.8005C8.12597 15.7555 9.53706 16.2811 10.997 16.2811C12.4569 16.2811 13.8679 15.7555 14.9721 14.8005C15.0391 14.7422 15.1233 14.7075 15.2119 14.7016C15.3005 14.6957 15.3886 14.719 15.4627 14.768C16.3327 15.3403 17.0841 16.0752 17.6757 16.9323C19.1334 15.3002 19.9386 13.1883 19.9375 11Z" fill="#AA70BF"/>
</svg>
