<svg width="69" height="69" viewBox="0 0 69 69" fill="none" xmlns="http://www.w3.org/2000/svg">
<path d="M67.1378 17.2206L51.7791 1.85843C51.2684 1.34757 50.662 0.942332 49.9946 0.665853C49.3272 0.389374 48.6119 0.24707 47.8896 0.24707C47.1672 0.24707 46.4519 0.389374 45.7845 0.665853C45.1171 0.942332 44.5108 1.34757 44 1.85843L1.61221 44.2497C1.09927 44.7585 0.692593 45.3643 0.415825 46.0317C0.139057 46.6992 -0.00228057 47.415 2.78264e-05 48.1375V63.4997C2.78264e-05 64.9584 0.57949 66.3573 1.61094 67.3888C2.64239 68.4202 4.04134 68.9997 5.50003 68.9997H20.8622C21.5848 69.002 22.3005 68.8606 22.968 68.5839C23.6354 68.3071 24.2412 67.9004 24.75 67.3875L67.1378 24.9997C67.6487 24.4889 68.0539 23.8826 68.3304 23.2152C68.6069 22.5478 68.7492 21.8325 68.7492 21.1101C68.7492 20.3878 68.6069 19.6725 68.3304 19.0051C68.0539 18.3377 67.6487 17.7314 67.1378 17.2206ZM6.63784 46.9997L37.6957 15.9419L43.4294 21.6791L12.375 52.7334L6.63784 46.9997ZM5.50003 53.6375L15.3622 63.4997H5.50003V53.6375ZM22 62.3619L16.2628 56.6247L47.3207 25.5669L53.0544 31.3041L22 62.3619Z" fill="url(#paint0_linear_5029_935)" fill-opacity="0.2"/>
<defs>
<linearGradient id="paint0_linear_5029_935" x1="61.1104" y1="-16.9411" x2="8.08615" y2="96.3861" gradientUnits="userSpaceOnUse">
<stop stop-color="#571B6D"/>
<stop offset="1" stop-color="#805592"/>
</linearGradient>
</defs>
</svg>
