<svg width="76" height="77" viewBox="0 0 76 77" fill="none" xmlns="http://www.w3.org/2000/svg">
<path d="M50.6664 0.46692L8.17869 11.9035C5.36158 12.6618 2.96108 14.5082 1.50528 17.0364C0.049477 19.5645 -0.342377 22.5675 0.415918 25.3846L11.8525 67.8723C12.6108 70.6894 14.4572 73.0899 16.9854 74.5457C19.5135 76.0015 22.5165 76.3934 25.3336 75.6351L67.8213 64.1985C70.6384 63.4402 73.0389 61.5938 74.4947 59.0656C75.9505 56.5374 76.3424 53.5345 75.5841 50.7174L64.1475 8.22969C63.3892 5.41258 61.5428 3.01208 59.0146 1.55628C56.4864 0.10048 53.4835 -0.291375 50.6664 0.46692ZM32.2798 53.8302C31.492 54.0422 30.659 54.0159 29.8861 53.7545C29.1133 53.4932 28.4353 53.0085 27.9379 52.3618C27.4405 51.7151 27.146 50.9355 27.0917 50.1214C27.0374 49.3074 27.2257 48.4955 27.6329 47.7885C28.04 47.0815 28.6476 46.5111 29.3789 46.1494C30.1102 45.7878 30.9323 45.6511 31.7413 45.7566C32.5503 45.8622 33.3098 46.2053 33.9238 46.7425C34.5378 47.2797 34.9787 47.987 35.1908 48.7748C35.4752 49.8312 35.3282 50.9573 34.7823 51.9054C34.2364 52.8534 33.3362 53.5458 32.2798 53.8302ZM27.2762 35.2418C26.4884 35.4539 25.6554 35.4275 24.8826 35.1662C24.1097 34.9048 23.4317 34.4201 22.9343 33.7735C22.4369 33.1268 22.1425 32.3471 22.0882 31.5331C22.0339 30.719 22.2222 29.9072 22.6293 29.2002C23.0365 28.4932 23.6441 27.9227 24.3754 27.5611C25.1067 27.1994 25.9288 27.0627 26.7378 27.1683C27.5468 27.2738 28.3063 27.6169 28.9203 28.1541C29.5343 28.6914 29.9752 29.3986 30.1873 30.1864C30.4716 31.2428 30.3247 32.3689 29.7788 33.317C29.2328 34.2651 28.3327 34.9574 27.2762 35.2418ZM50.8681 48.8266C50.0803 49.0387 49.2473 49.0124 48.4745 48.751C47.7016 48.4897 47.0236 48.005 46.5262 47.3583C46.0288 46.7116 45.7344 45.932 45.6801 45.1179C45.6258 44.3039 45.8141 43.492 46.2212 42.785C46.6283 42.078 47.236 41.5076 47.9673 41.1459C48.6986 40.7842 49.5207 40.6475 50.3297 40.7531C51.1387 40.8587 51.8982 41.2018 52.5122 41.739C53.1262 42.2762 53.5671 42.9834 53.7792 43.7712C54.0635 44.8277 53.9166 45.9538 53.3706 46.9018C52.8247 47.8499 51.9245 48.5423 50.8681 48.8266ZM45.8646 30.2383C45.0768 30.4503 44.2438 30.424 43.4709 30.1627C42.6981 29.9013 42.0201 29.4166 41.5227 28.7699C41.0253 28.1232 40.7308 27.3436 40.6766 26.5295C40.6223 25.7155 40.8106 24.9037 41.2177 24.1966C41.6248 23.4896 42.2325 22.9192 42.9637 22.5575C43.695 22.1959 44.5172 22.0592 45.3262 22.1647C46.1351 22.2703 46.8947 22.6134 47.5087 23.1506C48.1227 23.6878 48.5636 24.3951 48.7756 25.1829C49.06 26.2393 48.9131 27.3654 48.3671 28.3135C47.8212 29.2615 46.921 29.9539 45.8646 30.2383Z" fill="url(#paint0_linear_5029_2007)" fill-opacity="0.2"/>
<defs>
<linearGradient id="paint0_linear_5029_2007" x1="49.9183" y1="-16.419" x2="29.0456" y2="101.864" gradientUnits="userSpaceOnUse">
<stop stop-color="#571B6D"/>
<stop offset="1" stop-color="#805592"/>
</linearGradient>
</defs>
</svg>
