<svg width="86" height="68" viewBox="0 0 86 68" fill="none" xmlns="http://www.w3.org/2000/svg">
<path d="M84.1285 16.9707L71.0953 2.30227C70.6154 1.76246 70.0337 1.32247 69.3837 1.00745C68.7337 0.692433 68.028 0.508546 67.3068 0.466293C66.5857 0.424039 65.8634 0.524246 65.181 0.761193C64.4986 0.99814 63.8696 1.36719 63.3299 1.84725L56.1852 8.19531L37.5568 8.27566C37.0793 8.27965 36.6108 8.40576 36.1958 8.64199L20.0441 17.9236L10.6783 16.0197C9.97052 15.8755 9.24124 15.872 8.53212 16.0096C7.823 16.1473 7.14794 16.4232 6.54548 16.8217C5.94301 17.2203 5.42496 17.7336 5.02089 18.3323C4.61682 18.9311 4.33465 19.6036 4.19051 20.3114L0.28077 39.5368C0.136508 40.2446 0.133083 40.9739 0.270691 41.683C0.4083 42.3921 0.684246 43.0672 1.08277 43.6697C1.4813 44.2721 1.9946 44.7902 2.59335 45.1943C3.19211 45.5983 3.8646 45.8805 4.57242 46.0246L14.7418 48.0967L36.7017 56.2933C37.0251 56.4133 37.3681 56.4719 37.713 56.4661L60.3864 56.0587C60.8613 56.0506 61.326 55.9195 61.7352 55.6783C62.1444 55.4372 62.4842 55.0941 62.7215 54.6826L72.4249 37.8313L76.0831 31.4783L83.6725 24.7329C84.7619 23.7637 85.4218 22.4017 85.5073 20.9462C85.5928 19.4906 85.0969 18.0607 84.1285 16.9707ZM68.8901 32.9517L55.0058 26.8781C54.3838 26.606 53.6831 26.5737 53.0387 26.7872C52.3943 27.0008 51.8516 27.4451 51.5152 28.0348C47.2064 35.581 40.4146 36.6011 35.4975 35.0768L46.0978 17.2721L56.6566 14.4299L70.55 30.0593L68.8901 32.9517ZM58.7321 50.5876L38.1418 50.9575L18.6709 43.6892L22.9616 22.5991L38.3068 13.7731L41.7912 13.7572L30.7568 32.2768L30.7383 32.3138C30.3274 33.0275 30.082 33.8243 30.0201 34.6454C29.9583 35.4666 30.0816 36.2911 30.3811 37.0583C30.6805 37.8254 31.1483 38.5155 31.7501 39.0776C32.3519 39.6397 33.0722 40.0596 33.8579 40.3061C41.8557 42.8274 49.9006 39.9037 54.9571 32.8468L66.1195 37.7486L58.7321 50.5876ZM53.3041 64.4369C53.3151 65.0495 53.1213 65.6482 52.7533 66.138C52.3854 66.6279 51.8644 66.9808 51.273 67.1409C51.0548 67.1994 50.8302 67.2311 50.6043 67.2355L35.8274 67.5001C35.4824 67.5074 35.1392 67.4487 34.8162 67.3273L24.3881 63.4347C23.7367 63.1572 23.2174 62.6391 22.9383 61.9883C22.6593 61.3375 22.6421 60.6041 22.8902 59.9409C23.1384 59.2777 23.6328 58.7358 24.2705 58.428C24.9081 58.1202 25.64 58.0703 26.3136 58.2886L36.2514 61.9999L50.5055 61.7372C51.2346 61.7242 51.939 62.0013 52.4638 62.5076C52.9886 63.0139 53.2909 63.7079 53.3041 64.4369Z" fill="url(#paint0_linear_5029_2260)" fill-opacity="0.2"/>
<defs>
<linearGradient id="paint0_linear_5029_2260" x1="65.9644" y1="-15.127" x2="60.3809" y2="100.449" gradientUnits="userSpaceOnUse">
<stop stop-color="#571B6D"/>
<stop offset="1" stop-color="#805592"/>
</linearGradient>
</defs>
</svg>
