<svg width="84" height="61" viewBox="0 0 84 61" fill="none" xmlns="http://www.w3.org/2000/svg">
<path d="M20.0413 34.8068C20.0506 34.993 20.0219 35.1793 19.957 35.3541C19.8921 35.5289 19.7923 35.6887 19.6637 35.8238C19.5351 35.9589 19.3803 36.0663 19.2089 36.1397C19.0374 36.213 18.8528 36.2508 18.6663 36.2505H3.50004C2.87935 36.2515 2.27659 36.0424 1.78979 35.6573C1.30299 35.2723 0.96077 34.7338 0.818788 34.1296C0.730379 33.716 0.734454 33.288 0.830723 32.8762C0.926992 32.4644 1.11307 32.0789 1.37566 31.7474C3.80188 28.5298 7.02103 25.9964 10.7188 24.3946C9.09535 22.9144 7.85021 21.0668 7.08767 19.0064C6.32513 16.9461 6.06739 14.733 6.33602 12.5526C6.60465 10.3721 7.39185 8.2878 8.63167 6.47415C9.87149 4.6605 11.5279 3.17034 13.462 2.12846C15.3962 1.08659 17.5518 0.523337 19.7484 0.485885C21.945 0.448433 24.1187 0.93787 26.0872 1.9132C28.0558 2.88854 29.762 4.32137 31.0629 6.0917C32.3638 7.86204 33.2216 9.91832 33.5644 12.0883C33.6087 12.3802 33.5564 12.6784 33.4155 12.9378C33.2747 13.1972 33.053 13.4034 32.7841 13.5252C28.9698 15.2886 25.7395 18.1062 23.4743 21.6455C21.2092 25.1849 20.0036 29.2984 20 33.5005C20 33.9405 20 34.3737 20.0413 34.8068ZM82.6038 31.744C80.1832 28.5301 76.9714 25.9981 73.2813 24.3946C74.9047 22.9144 76.1499 21.0668 76.9124 19.0064C77.6749 16.9461 77.9327 14.733 77.6641 12.5526C77.3954 10.3721 76.6082 8.2878 75.3684 6.47415C74.1286 4.6605 72.4722 3.17034 70.5381 2.12846C68.6039 1.08659 66.4482 0.523337 64.2516 0.485885C62.055 0.448433 59.8814 0.93787 57.9129 1.9132C55.9443 2.88854 54.2381 4.32137 52.9372 6.0917C51.6363 7.86204 50.7785 9.91832 50.4357 12.0883C50.3914 12.3802 50.4437 12.6784 50.5845 12.9378C50.7254 13.1972 50.9471 13.4034 51.216 13.5252C55.0303 15.2886 58.2606 18.1062 60.5257 21.6455C62.7909 25.1849 63.9964 29.2984 64 33.5005C64 33.9405 64 34.3737 63.9588 34.8068C63.9495 34.993 63.9781 35.1793 64.043 35.3541C64.108 35.5289 64.2078 35.6887 64.3364 35.8238C64.465 35.9589 64.6198 36.0663 64.7912 36.1397C64.9627 36.213 65.1473 36.2508 65.3338 36.2505H80.5C81.1207 36.2515 81.7235 36.0424 82.2103 35.6573C82.6971 35.2723 83.0393 34.7338 83.1813 34.1296C83.2702 33.7153 83.2661 33.2863 83.1692 32.8738C83.0723 32.4613 82.8851 32.0754 82.621 31.744H82.6038ZM52.01 46.5871C54.7482 44.4901 56.7604 41.5878 57.7639 38.2881C58.7673 34.9885 58.7116 31.4573 57.6045 28.1909C56.4974 24.9246 54.3946 22.0872 51.5917 20.0777C48.7888 18.0681 45.4266 16.9874 41.9777 16.9874C38.5288 16.9874 35.1666 18.0681 32.3637 20.0777C29.5607 22.0872 27.458 24.9246 26.3509 28.1909C25.2438 31.4573 25.1881 34.9885 26.1915 38.2881C27.195 41.5878 29.2072 44.4901 31.9453 46.5871C27.0866 48.6923 23.0294 52.2978 20.3679 56.8755C20.1265 57.2936 19.9994 57.7679 19.9994 58.2507C19.9994 58.7335 20.1266 59.2077 20.368 59.6258C20.6094 60.0439 20.9567 60.391 21.3748 60.6323C21.793 60.8736 22.2673 61.0006 22.75 61.0005H61.25C61.7328 61.0006 62.2071 60.8736 62.6253 60.6323C63.0434 60.391 63.3906 60.0439 63.6321 59.6258C63.8735 59.2077 64.0006 58.7335 64.0007 58.2507C64.0007 57.7679 63.8736 57.2936 63.6322 56.8755C60.965 52.2948 56.9003 48.689 52.0341 46.5871H52.01Z" fill="url(#paint0_linear_5029_1693)" fill-opacity="0.2"/>
<defs>
<linearGradient id="paint0_linear_5029_1693" x1="74.0796" y1="-14.6453" x2="36.7443" y2="94.1288" gradientUnits="userSpaceOnUse">
<stop stop-color="#571B6D"/>
<stop offset="1" stop-color="#805592"/>
</linearGradient>
</defs>
</svg>
