<svg width="24" height="25" viewBox="0 0 24 25" fill="none" xmlns="http://www.w3.org/2000/svg">
<path d="M23 23H21V10.4137L22.4137 9C22.6003 8.81496 22.7482 8.59468 22.8488 8.35198C22.9494 8.10928 23.0008 7.84899 23 7.58625V2C23 1.46957 22.7893 0.960859 22.4142 0.585786C22.0391 0.210714 21.5304 0 21 0H18.5C18.2348 0 17.9804 0.105357 17.7929 0.292893C17.6054 0.48043 17.5 0.734784 17.5 1V4H14.5V1C14.5 0.734784 14.3946 0.48043 14.2071 0.292893C14.0196 0.105357 13.7652 0 13.5 0H10.5C10.2348 0 9.98043 0.105357 9.79289 0.292893C9.60536 0.48043 9.5 0.734784 9.5 1V4H6.5V1C6.5 0.734784 6.39464 0.48043 6.20711 0.292893C6.01957 0.105357 5.76522 0 5.5 0H3C2.46957 0 1.96086 0.210714 1.58579 0.585786C1.21071 0.960859 1 1.46957 1 2V7.58625C0.999161 7.84899 1.05056 8.10928 1.1512 8.35198C1.25184 8.59468 1.39972 8.81496 1.58625 9L3 10.4137V23H1C0.734784 23 0.48043 23.1054 0.292893 23.2929C0.105357 23.4804 0 23.7348 0 24C0 24.2652 0.105357 24.5196 0.292893 24.7071C0.48043 24.8946 0.734784 25 1 25H23C23.2652 25 23.5196 24.8946 23.7071 24.7071C23.8946 24.5196 24 24.2652 24 24C24 23.7348 23.8946 23.4804 23.7071 23.2929C23.5196 23.1054 23.2652 23 23 23ZM10 17C10 16.4696 10.2107 15.9609 10.5858 15.5858C10.9609 15.2107 11.4696 15 12 15C12.5304 15 13.0391 15.2107 13.4142 15.5858C13.7893 15.9609 14 16.4696 14 17V23H10V17Z" fill="#422748"/>
</svg>
