<svg width="30" height="19" viewBox="0 0 30 19" fill="none" xmlns="http://www.w3.org/2000/svg">
<path d="M1 5.5V2C1 1.46957 1.21071 0.960859 1.58579 0.585786C1.96086 0.210714 2.46957 0 3 0H13.5C13.6326 0 13.7598 0.0526785 13.8536 0.146447C13.9473 0.240215 14 0.367392 14 0.5V10H7C7 8.93913 6.57857 7.92172 5.82843 7.17157C5.07828 6.42143 4.06087 6 3 6H1.5C1.36739 6 1.24021 5.94732 1.14645 5.85355C1.05268 5.75979 1 5.63261 1 5.5ZM27 6H28.5C28.6326 6 28.7598 5.94732 28.8536 5.85355C28.9473 5.75979 29 5.63261 29 5.5V2C29 1.46957 28.7893 0.960859 28.4142 0.585786C28.0391 0.210714 27.5304 0 27 0H16.5C16.3674 0 16.2402 0.0526785 16.1464 0.146447C16.0527 0.240215 16 0.367392 16 0.5V10H23C23 8.93913 23.4214 7.92172 24.1716 7.17157C24.9217 6.42143 25.9391 6 27 6ZM28 8H27C26.4696 8 25.9609 8.21071 25.5858 8.58579C25.2107 8.96086 25 9.46957 25 10V11C25 11.2652 24.8946 11.5196 24.7071 11.7071C24.5196 11.8946 24.2652 12 24 12H6C5.73478 12 5.48043 11.8946 5.29289 11.7071C5.10536 11.5196 5 11.2652 5 11V10C5 9.46957 4.78929 8.96086 4.41421 8.58579C4.03914 8.21071 3.53043 8 3 8H2C1.46957 8 0.960859 8.21071 0.585786 8.58579C0.210714 8.96086 0 9.46957 0 10V14C0 14.5304 0.210714 15.0391 0.585786 15.4142C0.960859 15.7893 1.46957 16 2 16H3V17.9662C2.99618 18.2247 3.09037 18.4749 3.2636 18.6667C3.43684 18.8585 3.67628 18.9776 3.93375 19C4.07054 19.0091 4.20773 18.9899 4.33681 18.9438C4.46589 18.8976 4.58409 18.8254 4.68409 18.7316C4.78408 18.6378 4.86372 18.5245 4.91807 18.3986C4.97241 18.2728 5.0003 18.1371 5 18V16H25V17.9662C24.9965 18.2243 25.0909 18.4741 25.2641 18.6655C25.4374 18.8568 25.6766 18.9754 25.9338 18.9975C26.0705 19.0066 26.2077 18.9874 26.3368 18.9413C26.4659 18.8951 26.5841 18.8229 26.6841 18.7291C26.7841 18.6353 26.8637 18.522 26.9181 18.3961C26.9724 18.2703 27.0003 18.1346 27 17.9975V16H28C28.5304 16 29.0391 15.7893 29.4142 15.4142C29.7893 15.0391 30 14.5304 30 14V10C30 9.46957 29.7893 8.96086 29.4142 8.58579C29.0391 8.21071 28.5304 8 28 8Z" fill="#422748"/>
</svg>
