<svg width="25" height="27" viewBox="0 0 25 27" fill="none" xmlns="http://www.w3.org/2000/svg">
<path d="M24.615 0.21119C24.4952 0.117852 24.3557 0.0530215 24.2072 0.021617C24.0586 -0.00978748 23.9048 -0.00694139 23.7575 0.0299395L7.75751 4.02994C7.54117 4.08402 7.34911 4.20885 7.21186 4.3846C7.07461 4.56036 7.00004 4.77694 7.00001 4.99994V18.7599C6.1658 18.2026 5.16925 17.9399 4.16869 18.0138C3.16813 18.0877 2.22095 18.4938 1.47764 19.1676C0.734328 19.8415 0.237518 20.7444 0.0661422 21.7329C-0.105233 22.7215 0.0586556 23.7389 0.53177 24.6236C1.00489 25.5084 1.76009 26.2096 2.6774 26.616C3.5947 27.0223 4.6215 27.1105 5.59464 26.8664C6.56779 26.6224 7.43147 26.0601 8.04846 25.269C8.66546 24.4779 9.00038 23.5032 9.00001 22.4999V5.78119L23 2.28119V14.7599C22.1658 14.2026 21.1692 13.9399 20.1687 14.0138C19.1681 14.0877 18.221 14.4938 17.4776 15.1676C16.7343 15.8415 16.2375 16.7444 16.0661 17.7329C15.8948 18.7215 16.0587 19.7389 16.5318 20.6236C17.0049 21.5084 17.7601 22.2096 18.6774 22.616C19.5947 23.0223 20.6215 23.1105 21.5946 22.8664C22.5678 22.6224 23.4315 22.0601 24.0485 21.269C24.6655 20.4779 25.0004 19.5032 25 18.4999V0.99994C25 0.847846 24.9654 0.697749 24.8987 0.561069C24.8319 0.424388 24.7349 0.304727 24.615 0.21119Z" fill="#422748"/>
</svg>
