<svg width="28" height="29" viewBox="0 0 28 29" fill="none" xmlns="http://www.w3.org/2000/svg">
<path d="M27.4151 21.4999L22.8851 16.9687L18.3276 1.93241C18.1981 1.50426 17.9649 1.11466 17.6489 0.798118C17.3328 0.481581 16.9436 0.247878 16.5156 0.117711C16.0877 -0.0124563 15.6342 -0.0350695 15.1954 0.0518747C14.7566 0.138819 14.3461 0.332636 14.0001 0.616159C13.6541 0.332636 13.2435 0.138819 12.8047 0.0518747C12.366 -0.0350695 11.9125 -0.0124563 11.4845 0.117711C11.0566 0.247878 10.6673 0.481581 10.3513 0.798118C10.0352 1.11466 9.8021 1.50426 9.67258 1.93241L5.11508 16.9699L0.585079 21.4999C0.21029 21.8749 -0.000244141 22.3835 -0.000244141 22.9137C-0.000244141 23.4439 0.21029 23.9524 0.585079 24.3274L4.67133 28.4137C4.85705 28.5994 5.07755 28.7468 5.32023 28.8473C5.56291 28.9479 5.82302 28.9996 6.0857 28.9996C6.34839 28.9996 6.6085 28.9479 6.85118 28.8473C7.09386 28.7468 7.31436 28.5994 7.50008 28.4137L13.5351 22.3749C13.7024 22.2072 13.8578 22.028 14.0001 21.8387C14.1424 22.028 14.2978 22.2072 14.4651 22.3749L20.5001 28.4149C20.6858 28.6007 20.9063 28.748 21.149 28.8486C21.3917 28.9491 21.6518 29.0009 21.9145 29.0009C22.1771 29.0009 22.4372 28.9491 22.6799 28.8486C22.9226 28.748 23.1431 28.6007 23.3288 28.4149L27.4151 24.3287C27.6008 24.1429 27.7482 23.9224 27.8487 23.6798C27.9493 23.4371 28.001 23.177 28.001 22.9143C28.001 22.6516 27.9493 22.3915 27.8487 22.1488C27.7482 21.9061 27.6008 21.6856 27.4151 21.4999ZM13.0001 18.8437C13.0021 19.2381 12.9258 19.6291 12.7756 19.9939C12.6254 20.3586 12.4043 20.69 12.1251 20.9687L9.08508 23.9999L5.00008 19.9149L6.70633 18.2074C6.82277 18.091 6.90865 17.9475 6.95633 17.7899L11.5813 2.51241C11.6282 2.34241 11.7357 2.19543 11.8835 2.09919C12.0313 2.00294 12.2091 1.96406 12.3836 1.98988C12.558 2.01571 12.717 2.10444 12.8306 2.23937C12.9441 2.3743 13.0044 2.54611 13.0001 2.72241V18.8437ZM18.9301 24.0162L15.8751 20.9649C15.5959 20.6862 15.3748 20.3549 15.2246 19.9901C15.0744 19.6253 14.9981 19.2344 15.0001 18.8399V2.71491C15.0001 2.54172 15.0624 2.3743 15.1755 2.24316C15.2886 2.11203 15.4451 2.02589 15.6164 2.00044C15.7877 1.97499 15.9625 2.01193 16.1089 2.10452C16.2552 2.19712 16.3634 2.33921 16.4138 2.50491L21.0388 17.7824C21.0865 17.94 21.1724 18.0835 21.2888 18.1999L23.1001 20.0112L18.9301 24.0162Z" fill="#422748"/>
</svg>
