<svg width="28" height="21" viewBox="0 0 28 21" fill="none" xmlns="http://www.w3.org/2000/svg">
<path d="M28 10.5V19C28 19.5304 27.7893 20.0391 27.4142 20.4142C27.0391 20.7893 26.5304 21 26 21H2C1.46957 21 0.960859 20.7893 0.585786 20.4142C0.210714 20.0391 0 19.5304 0 19V10.5C0 10.3674 0.0526785 10.2402 0.146447 10.1464C0.240215 10.0527 0.367392 10 0.5 10H5V18C4.9997 18.1371 5.02759 18.2728 5.08193 18.3986C5.13628 18.5245 5.21592 18.6378 5.31591 18.7316C5.41591 18.8254 5.53411 18.8976 5.66319 18.9438C5.79227 18.9899 5.92946 19.0091 6.06625 19C6.32383 18.9779 6.56344 18.8589 6.73674 18.667C6.91003 18.4752 7.00411 18.2247 7 17.9662V10H12V12.5C12 12.6326 12.0527 12.7598 12.1464 12.8536C12.2402 12.9473 12.3674 13 12.5 13H15.5C15.6326 13 15.7598 12.9473 15.8536 12.8536C15.9473 12.7598 16 12.6326 16 12.5V10H21V18C20.9997 18.1371 21.0276 18.2728 21.0819 18.3986C21.1363 18.5245 21.2159 18.6378 21.3159 18.7316C21.4159 18.8254 21.5341 18.8976 21.6632 18.9438C21.7923 18.9899 21.9295 19.0091 22.0662 19C22.3234 18.9779 22.5626 18.8593 22.7359 18.668C22.9091 18.4766 23.0035 18.2268 23 17.9688V10H27.5C27.6326 10 27.7598 10.0527 27.8536 10.1464C27.9473 10.2402 28 10.3674 28 10.5ZM21 0H7C5.14348 0 3.36301 0.737498 2.05025 2.05025C0.737498 3.36301 0 5.14348 0 7V7.5C0 7.63261 0.0526785 7.75979 0.146447 7.85355C0.240215 7.94732 0.367392 8 0.5 8H5V3.03375C4.99589 2.77525 5.08997 2.52481 5.26326 2.33296C5.43656 2.14111 5.67617 2.02212 5.93375 2C6.07054 1.99092 6.20773 2.01006 6.33681 2.05623C6.46589 2.1024 6.58409 2.17462 6.68409 2.2684C6.78408 2.36218 6.86372 2.47552 6.91807 2.60137C6.97241 2.72723 7.0003 2.86291 7 3V8H12V6.5C12 6.36739 12.0527 6.24021 12.1464 6.14645C12.2402 6.05268 12.3674 6 12.5 6H15.5C15.6326 6 15.7598 6.05268 15.8536 6.14645C15.9473 6.24021 16 6.36739 16 6.5V8H21V3.03375C20.9959 2.77525 21.09 2.52481 21.2633 2.33296C21.4366 2.14111 21.6762 2.02212 21.9338 2C22.0705 1.99092 22.2077 2.01006 22.3368 2.05623C22.4659 2.1024 22.5841 2.17462 22.6841 2.2684C22.7841 2.36218 22.8637 2.47552 22.9181 2.60137C22.9724 2.72723 23.0003 2.86291 23 3V8H27.5C27.6326 8 27.7598 7.94732 27.8536 7.85355C27.9473 7.75979 28 7.63261 28 7.5V7C28 5.14348 27.2625 3.36301 25.9497 2.05025C24.637 0.737498 22.8565 0 21 0Z" fill="#422748"/>
</svg>
