<svg width="25" height="25" viewBox="0 0 25 25" fill="none" xmlns="http://www.w3.org/2000/svg">
<path d="M23.9998 4.86011e-09H15.9998C15.8466 -1.50922e-05 15.6955 0.0351421 15.5581 0.10276C15.4207 0.170379 15.3007 0.268651 15.2073 0.39L7.20726 10.7913L5.99976 9.58625C5.81401 9.4003 5.59343 9.25278 5.35064 9.15213C5.10784 9.05148 4.84759 8.99968 4.58476 8.99968C4.32193 8.99968 4.06167 9.05148 3.81888 9.15213C3.57608 9.25278 3.3555 9.4003 3.16976 9.58625L2.08351 10.6737C1.89774 10.8595 1.75038 11.08 1.64984 11.3227C1.54931 11.5653 1.49756 11.8254 1.49756 12.0881C1.49756 12.3508 1.54931 12.6109 1.64984 12.8536C1.75038 13.0963 1.89774 13.3168 2.08351 13.5025L4.83351 16.2525L0.833507 20.2525C0.647741 20.4382 0.500381 20.6587 0.399843 20.9014C0.299305 21.1441 0.247559 21.4042 0.247559 21.6669C0.247559 21.9296 0.299305 22.1897 0.399843 22.4323C0.500381 22.675 0.647741 22.8955 0.833507 23.0812L1.91976 24.1663C2.29479 24.541 2.8033 24.7516 3.33351 24.7516C3.86371 24.7516 4.37222 24.541 4.74726 24.1663L8.74726 20.1663L11.4973 22.9163C11.683 23.1022 11.9036 23.2497 12.1464 23.3504C12.3892 23.451 12.6494 23.5028 12.9123 23.5028C13.1751 23.5028 13.4353 23.451 13.6781 23.3504C13.9209 23.2497 14.1415 23.1022 14.3273 22.9163L15.4135 21.8288C15.5993 21.643 15.7466 21.4225 15.8472 21.1798C15.9477 20.9372 15.9995 20.6771 15.9995 20.4144C15.9995 20.1517 15.9477 19.8916 15.8472 19.6489C15.7466 19.4062 15.5993 19.1857 15.4135 19L14.2085 17.795L24.6098 9.795C24.7314 9.70133 24.8299 9.58089 24.8975 9.44302C24.9652 9.30515 25.0002 9.15356 24.9998 9V1C24.9998 0.734784 24.8944 0.48043 24.7069 0.292893C24.5193 0.105357 24.265 4.86011e-09 23.9998 4.86011e-09ZM22.9998 8.5075L12.7823 16.3675L11.4148 15L17.7073 8.7075C17.8947 8.51986 18 8.26543 17.9999 8.00018C17.9998 7.73494 17.8943 7.4806 17.7066 7.29313C17.519 7.10565 17.2646 7.00039 16.9993 7.00051C16.7341 7.00063 16.4797 7.10611 16.2923 7.29375L9.99976 13.585L8.63351 12.2175L16.4923 2H22.9998V8.5075Z" fill="#422748"/>
</svg>
