<svg width="24" height="24" viewBox="0 0 24 24" fill="none" xmlns="http://www.w3.org/2000/svg">
<path d="M22 0H2C1.46957 0 0.960859 0.210714 0.585786 0.585786C0.210714 0.960859 0 1.46957 0 2V22C0 22.5304 0.210714 23.0391 0.585786 23.4142C0.960859 23.7893 1.46957 24 2 24H22C22.5304 24 23.0391 23.7893 23.4142 23.4142C23.7893 23.0391 24 22.5304 24 22V2C24 1.46957 23.7893 0.960859 23.4142 0.585786C23.0391 0.210714 22.5304 0 22 0ZM5.5 20C5.20333 20 4.91332 19.912 4.66665 19.7472C4.41997 19.5824 4.22771 19.3481 4.11418 19.074C4.00065 18.7999 3.97094 18.4983 4.02882 18.2074C4.0867 17.9164 4.22956 17.6491 4.43934 17.4393C4.64912 17.2296 4.91639 17.0867 5.20736 17.0288C5.49834 16.9709 5.79994 17.0007 6.07403 17.1142C6.34811 17.2277 6.58238 17.42 6.7472 17.6666C6.91203 17.9133 7 18.2033 7 18.5C7 18.8978 6.84196 19.2794 6.56066 19.5607C6.27936 19.842 5.89782 20 5.5 20ZM11 20C10.7348 20 10.4804 19.8946 10.2929 19.7071C10.1054 19.5196 10 19.2652 10 19C10 18.3434 9.87067 17.6932 9.6194 17.0866C9.36812 16.48 8.99983 15.9288 8.53553 15.4645C8.07124 15.0002 7.52004 14.6319 6.91342 14.3806C6.30679 14.1293 5.65661 14 5 14C4.73478 14 4.48043 13.8946 4.29289 13.7071C4.10536 13.5196 4 13.2652 4 13C4 12.7348 4.10536 12.4804 4.29289 12.2929C4.48043 12.1054 4.73478 12 5 12C6.85591 12.002 8.63523 12.7401 9.94755 14.0524C11.2599 15.3648 11.998 17.1441 12 19C12 19.2652 11.8946 19.5196 11.7071 19.7071C11.5196 19.8946 11.2652 20 11 20ZM15 20C14.7348 20 14.4804 19.8946 14.2929 19.7071C14.1054 19.5196 14 19.2652 14 19C13.9974 16.6139 13.0483 14.3262 11.361 12.639C9.67378 10.9517 7.38614 10.0026 5 10C4.73478 10 4.48043 9.89464 4.29289 9.70711C4.10536 9.51957 4 9.26522 4 9C4 8.73478 4.10536 8.48043 4.29289 8.29289C4.48043 8.10536 4.73478 8 5 8C7.91637 8.00331 10.7123 9.1633 12.7745 11.2255C14.8367 13.2877 15.9967 16.0836 16 19C16 19.2652 15.8946 19.5196 15.7071 19.7071C15.5196 19.8946 15.2652 20 15 20ZM19 20C18.7348 20 18.4804 19.8946 18.2929 19.7071C18.1054 19.5196 18 19.2652 18 19C17.9964 15.5533 16.6256 12.2488 14.1884 9.81163C11.7512 7.37445 8.4467 6.00364 5 6C4.73478 6 4.48043 5.89464 4.29289 5.70711C4.10536 5.51957 4 5.26522 4 5C4 4.73478 4.10536 4.48043 4.29289 4.29289C4.48043 4.10536 4.73478 4 5 4C8.97693 4.0043 12.7897 5.58604 15.6019 8.39815C18.414 11.2103 19.9957 15.0231 20 19C20 19.2652 19.8946 19.5196 19.7071 19.7071C19.5196 19.8946 19.2652 20 19 20Z" fill="#422748"/>
</svg>
