<svg width="25" height="24" viewBox="0 0 25 24" fill="none" xmlns="http://www.w3.org/2000/svg">
<path d="M23.3103 8.52276L11.2728 20.5603C10.9915 20.8413 10.6101 20.9992 10.2125 20.9992C9.81482 20.9992 9.43344 20.8413 9.15217 20.5603L2.43779 13.8103C2.15699 13.529 1.99927 13.1478 1.99927 12.7504C1.99927 12.353 2.15699 11.9718 2.43779 11.6906L4.31279 9.81557C4.59391 9.53562 4.97449 9.37845 5.37123 9.37845C5.76797 9.37845 6.14854 9.53562 6.42967 9.81557L10.25 13.5206L19.3212 4.56088C19.6024 4.28065 19.9832 4.12329 20.3801 4.12329C20.7771 4.12329 21.1579 4.28065 21.439 4.56088L23.3094 6.39276C23.45 6.53214 23.5617 6.69799 23.6379 6.88075C23.7141 7.0635 23.7534 7.25954 23.7535 7.45756C23.7536 7.65558 23.7145 7.85165 23.6384 8.03447C23.5623 8.2173 23.4508 8.38325 23.3103 8.52276Z" fill="#B2D6A8"/>
</svg>
