<svg width="50" height="50" viewBox="0 0 50 50" fill="none" xmlns="http://www.w3.org/2000/svg">
<path d="M41.7305 16.082L30.793 5.14453C30.6478 4.99948 30.4754 4.88446 30.2857 4.80604C30.096 4.72762 29.8928 4.68734 29.6875 4.6875H10.9375C10.1087 4.6875 9.31384 5.01674 8.72779 5.60279C8.14174 6.18884 7.8125 6.9837 7.8125 7.8125V42.1875C7.8125 43.0163 8.14174 43.8112 8.72779 44.3972C9.31384 44.9833 10.1087 45.3125 10.9375 45.3125H39.0625C39.8913 45.3125 40.6862 44.9833 41.2722 44.3972C41.8583 43.8112 42.1875 43.0163 42.1875 42.1875V17.1875C42.1877 16.9822 42.1474 16.779 42.069 16.5893C41.9905 16.3996 41.8755 16.2272 41.7305 16.082ZM29.6875 31.25H26.5625V34.375C26.5625 34.7894 26.3979 35.1868 26.1049 35.4799C25.8118 35.7729 25.4144 35.9375 25 35.9375C24.5856 35.9375 24.1882 35.7729 23.8951 35.4799C23.6021 35.1868 23.4375 34.7894 23.4375 34.375V31.25H20.3125C19.8981 31.25 19.5007 31.0854 19.2076 30.7924C18.9146 30.4993 18.75 30.1019 18.75 29.6875C18.75 29.2731 18.9146 28.8757 19.2076 28.5826C19.5007 28.2896 19.8981 28.125 20.3125 28.125H23.4375V25C23.4375 24.5856 23.6021 24.1882 23.8951 23.8951C24.1882 23.6021 24.5856 23.4375 25 23.4375C25.4144 23.4375 25.8118 23.6021 26.1049 23.8951C26.3979 24.1882 26.5625 24.5856 26.5625 25V28.125H29.6875C30.1019 28.125 30.4993 28.2896 30.7924 28.5826C31.0854 28.8757 31.25 29.2731 31.25 29.6875C31.25 30.1019 31.0854 30.4993 30.7924 30.7924C30.4993 31.0854 30.1019 31.25 29.6875 31.25ZM29.6875 17.1875V8.45899L38.416 17.1875H29.6875Z" fill="#D5B0E4"/>
</svg>
