<svg width="24" height="24" viewBox="0 0 24 24" fill="none" xmlns="http://www.w3.org/2000/svg">
<path d="M14.25 21L5.25 21C4.85217 21 4.47064 20.842 4.18934 20.5607C3.90803 20.2794 3.75 19.8978 3.75 19.5L3.75 4.5C3.75 4.10217 3.90804 3.72064 4.18934 3.43934C4.47064 3.15803 4.85218 3 5.25 3L14.25 3C14.6478 3 15.0294 3.15803 15.3107 3.43934C15.592 3.72064 15.75 4.10217 15.75 4.5L15.75 19.5C15.75 19.8978 15.592 20.2794 15.3107 20.5607C15.0294 20.842 14.6478 21 14.25 21ZM17.25 5.25L17.25 18.75C17.25 18.9489 17.329 19.1397 17.4697 19.2803C17.6103 19.421 17.8011 19.5 18 19.5C18.1989 19.5 18.3897 19.421 18.5303 19.2803C18.671 19.1397 18.75 18.9489 18.75 18.75L18.75 5.25C18.75 5.05109 18.671 4.86032 18.5303 4.71967C18.3897 4.57902 18.1989 4.5 18 4.5C17.8011 4.5 17.6103 4.57902 17.4697 4.71967C17.329 4.86032 17.25 5.05109 17.25 5.25ZM20.25 6.75L20.25 17.25C20.25 17.4489 20.329 17.6397 20.4697 17.7803C20.6103 17.921 20.8011 18 21 18C21.1989 18 21.3897 17.921 21.5303 17.7803C21.671 17.6397 21.75 17.4489 21.75 17.25L21.75 6.75C21.75 6.55109 21.671 6.36032 21.5303 6.21967C21.3897 6.07902 21.1989 6 21 6C20.8011 6 20.6103 6.07902 20.4697 6.21967C20.329 6.36032 20.25 6.55109 20.25 6.75Z" fill="#EEE0F1"/>
</svg>
