<svg width="18" height="10" viewBox="0 0 18 10" fill="none" xmlns="http://www.w3.org/2000/svg">
<path d="M10.8995 4.81016C10.5704 4.69195 10.5704 4.2405 10.55 3.92611C10.4677 2.80627 10.8791 1.09665 10.3854 0.369794C10.0359 -0.0627986 8.34872 -0.0231863 7.32049 0.035918C7.03217 0.0755304 6.68262 0.134006 6.43577 0.252215C6.18891 0.370424 5.94206 0.566599 5.94206 0.743283C5.94206 0.998563 6.55952 0.959579 6.78531 1.29346C7.03217 1.64745 7.03217 2.41329 7.03217 3.04206C7.03217 3.76892 6.90841 4.73219 6.60034 4.77118C6.12703 4.79067 5.85977 4.33858 5.61292 4.00471C5.11921 3.35645 4.6255 2.55036 4.25489 1.7644C4.06992 1.35193 3.96657 0.899847 3.69931 0.723163C3.28788 0.447762 2.54732 0.42827 1.82717 0.447762C1.16889 0.467254 0.222285 0.388658 0.037309 0.762146C-0.106854 1.17462 0.201878 1.5676 0.366448 1.9021C1.2097 3.65071 2.11483 5.18365 3.22601 6.63736C4.25489 7.99299 5.22124 9.07384 7.11379 9.64351C7.64897 9.8007 9.99376 10.2528 10.4671 9.64351C10.6316 9.40772 10.5908 8.87704 10.6731 8.48406C10.7554 8.09108 10.8581 7.6981 11.2491 7.6786C11.5782 7.65911 11.7632 7.93388 11.9692 8.13069C12.1957 8.34698 12.3807 8.52367 12.5452 8.72047C12.9363 9.09396 13.3477 9.60452 13.8414 9.80133C14.5201 10.0767 15.5694 9.99813 16.5568 9.95852C17.3592 9.93903 17.9352 9.78184 17.9971 9.32975C18.0386 8.97575 17.6265 8.46519 17.3796 8.1703C16.7622 7.44344 16.4745 7.22715 15.7747 6.55877C15.466 6.26387 15.075 5.94949 15.075 5.59612C15.0546 5.37982 15.2396 5.18365 15.4041 4.96735C16.1243 3.9456 16.8444 3.21875 17.5027 2.15738C17.6877 1.843 18.1202 1.11614 17.9556 0.762146C17.7706 0.369166 16.7418 0.486745 16.1039 0.486745C15.281 0.486745 14.2113 0.427641 14.0053 0.584833C13.6143 0.840113 13.4497 1.25322 13.2647 1.6462C12.8533 2.55037 12.2977 3.4734 11.7217 4.16127C11.5157 4.39706 11.1253 4.88813 10.8989 4.80953L10.8995 4.81016Z" fill="#742628"/>
</svg>
