<svg width="32" height="33" viewBox="0 0 32 33" fill="none" xmlns="http://www.w3.org/2000/svg">
<path d="M28.415 9.67119L22.8288 4.08619C22.643 3.90043 22.4225 3.75307 22.1799 3.65253C21.9372 3.55199 21.6771 3.50024 21.4144 3.50024C21.1517 3.50024 20.8916 3.55199 20.6489 3.65253C20.4062 3.75307 20.1857 3.90043 20 4.08619L4.58626 19.4999C4.39973 19.685 4.25185 19.9053 4.15121 20.148C4.05057 20.3907 3.99917 20.651 4.00001 20.9137V26.4999C4.00001 27.0304 4.21072 27.5391 4.5858 27.9142C4.96087 28.2892 5.46958 28.4999 6.00001 28.4999H27C27.2652 28.4999 27.5196 28.3946 27.7071 28.2071C27.8947 28.0195 28 27.7652 28 27.4999C28 27.2347 27.8947 26.9804 27.7071 26.7928C27.5196 26.6053 27.2652 26.4999 27 26.4999H14.415L28.415 12.4999C28.6008 12.3142 28.7481 12.0937 28.8487 11.851C28.9492 11.6084 29.001 11.3482 29.001 11.0856C29.001 10.8229 28.9492 10.5628 28.8487 10.3201C28.7481 10.0774 28.6008 9.85692 28.415 9.67119ZM24 14.0862L18.415 8.49994L21.415 5.49994L27 11.0862L24 14.0862Z" fill="#D5B0E4"/>
</svg>
