<svg width="32" height="33" viewBox="0 0 32 33" fill="none" xmlns="http://www.w3.org/2000/svg">
<path d="M16 3.5C13.4288 3.5 10.9154 4.26244 8.77759 5.6909C6.63975 7.11935 4.97351 9.14968 3.98957 11.5251C3.00563 13.9006 2.74819 16.5144 3.2498 19.0362C3.75141 21.5579 4.98953 23.8743 6.80762 25.6924C8.6257 27.5105 10.9421 28.7486 13.4638 29.2502C15.9856 29.7518 18.5995 29.4944 20.9749 28.5104C23.3503 27.5265 25.3807 25.8603 26.8091 23.7224C28.2376 21.5846 29 19.0712 29 16.5C28.9964 13.0533 27.6256 9.74882 25.1884 7.31163C22.7512 4.87445 19.4467 3.50364 16 3.5ZM11.5 12.5C11.7967 12.5 12.0867 12.588 12.3334 12.7528C12.58 12.9176 12.7723 13.1519 12.8858 13.426C12.9994 13.7001 13.0291 14.0017 12.9712 14.2926C12.9133 14.5836 12.7704 14.8509 12.5607 15.0607C12.3509 15.2704 12.0836 15.4133 11.7926 15.4712C11.5017 15.5291 11.2001 15.4994 10.926 15.3858C10.6519 15.2723 10.4176 15.08 10.2528 14.8334C10.088 14.5867 10 14.2967 10 14C10 13.6022 10.158 13.2206 10.4393 12.9393C10.7206 12.658 11.1022 12.5 11.5 12.5ZM21.865 20C20.5788 22.2238 18.4413 23.5 16 23.5C13.5588 23.5 11.4213 22.225 10.135 20C10.0627 19.8862 10.0141 19.7589 9.99218 19.6258C9.97029 19.4927 9.97555 19.3566 10.0076 19.2256C10.0397 19.0946 10.098 18.9715 10.1789 18.8636C10.2598 18.7557 10.3617 18.6652 10.4785 18.5978C10.5952 18.5303 10.7245 18.4871 10.8583 18.4708C10.9922 18.4546 11.128 18.4655 11.2575 18.5031C11.3871 18.5407 11.5077 18.6041 11.6121 18.6895C11.7164 18.7749 11.8025 18.8805 11.865 19C12.7988 20.6138 14.2663 21.5 16 21.5C17.7338 21.5 19.2013 20.6125 20.135 19C20.1975 18.8805 20.2836 18.7749 20.388 18.6895C20.4924 18.6041 20.6129 18.5407 20.7425 18.5031C20.872 18.4655 21.0078 18.4546 21.1417 18.4708C21.2756 18.4871 21.4048 18.5303 21.5215 18.5978C21.6383 18.6652 21.7402 18.7557 21.8211 18.8636C21.902 18.9715 21.9603 19.0946 21.9924 19.2256C22.0245 19.3566 22.0297 19.4927 22.0078 19.6258C21.9859 19.7589 21.9374 19.8862 21.865 20ZM20.5 15.5C20.2033 15.5 19.9133 15.412 19.6667 15.2472C19.42 15.0824 19.2277 14.8481 19.1142 14.574C19.0007 14.2999 18.971 13.9983 19.0288 13.7074C19.0867 13.4164 19.2296 13.1491 19.4393 12.9393C19.6491 12.7296 19.9164 12.5867 20.2074 12.5288C20.4983 12.4709 20.7999 12.5006 21.074 12.6142C21.3481 12.7277 21.5824 12.92 21.7472 13.1666C21.912 13.4133 22 13.7033 22 14C22 14.3978 21.842 14.7794 21.5607 15.0607C21.2794 15.342 20.8978 15.5 20.5 15.5Z" fill="#D5B0E4"/>
</svg>
