<svg width="22" height="19" viewBox="0 0 22 19" fill="none" xmlns="http://www.w3.org/2000/svg">
<path d="M1.78891 5.80133L19.67 0.316954C19.912 0.246365 20.1671 0.233054 20.4152 0.278074C20.6632 0.323093 20.8974 0.425209 21.0992 0.576344C21.301 0.727479 21.4648 0.923488 21.5778 1.14887C21.6907 1.37425 21.7497 1.62282 21.75 1.87492V16.4999C21.75 16.9309 21.5788 17.3442 21.274 17.649C20.9693 17.9537 20.556 18.1249 20.125 18.1249C19.9696 18.125 19.815 18.1027 19.6659 18.0589L11.1875 15.4569V16.4999C11.1875 16.9309 11.0163 17.3442 10.7115 17.649C10.4068 17.9537 9.99348 18.1249 9.5625 18.1249H6.3125C5.88152 18.1249 5.4682 17.9537 5.16345 17.649C4.85871 17.3442 4.6875 16.9309 4.6875 16.4999V13.4632L1.78891 12.5745C1.45343 12.4737 1.15923 12.2678 0.949669 11.9871C0.740112 11.7064 0.626295 11.3658 0.625 11.0155V7.3593C0.626513 7.00919 0.740431 6.66882 0.949972 6.38833C1.15951 6.10784 1.4536 5.90207 1.78891 5.80133ZM6.3125 16.4999H9.5625V14.9582L6.3125 13.9609V16.4999ZM2.25 11.0155H2.26117L9.5625 13.258V5.11578L2.26117 7.3593H2.25V11.0155Z" fill="#AA70BF"/>
</svg>
