<svg width="24" height="23" viewBox="0 0 24 23" fill="none" xmlns="http://www.w3.org/2000/svg">
<path d="M22.795 10.6643L18.2247 14.6079L19.6171 20.5057C19.694 20.8258 19.6742 21.1616 19.5603 21.4705C19.4464 21.7794 19.2435 22.0477 18.9772 22.2413C18.711 22.435 18.3933 22.5454 18.0643 22.5586C17.7353 22.5718 17.4098 22.4872 17.1288 22.3155L11.9999 19.159L6.86798 22.3155C6.58709 22.4862 6.26196 22.57 5.93355 22.5563C5.60513 22.5426 5.2881 22.4321 5.02239 22.2386C4.75668 22.0451 4.55416 21.7773 4.44034 21.4689C4.32652 21.1606 4.30648 20.8254 4.38275 20.5057L5.78025 14.6079L1.20994 10.6643C0.961411 10.4495 0.781673 10.1662 0.693169 9.84989C0.604665 9.53355 0.611317 9.19815 0.712296 8.88558C0.813274 8.573 1.0041 8.2971 1.26095 8.09233C1.5178 7.88756 1.82928 7.76299 2.1565 7.73419L8.14869 7.25076L10.4602 1.65669C10.5854 1.35182 10.7983 1.09104 11.072 0.907507C11.3457 0.723973 11.6678 0.625977 11.9974 0.625977C12.3269 0.625977 12.6491 0.723973 12.9228 0.907507C13.1965 1.09104 13.4094 1.35182 13.5345 1.65669L15.8451 7.25076L21.8373 7.73419C22.1651 7.76192 22.4775 7.88579 22.7353 8.09028C22.9931 8.29477 23.1848 8.57078 23.2864 8.88373C23.388 9.19669 23.395 9.53267 23.3065 9.84959C23.218 10.1665 23.038 10.4503 22.7889 10.6653L22.795 10.6643Z" fill="#AA70BF"/>
</svg>
