<svg width="24" height="27" viewBox="0 0 24 27" fill="none" xmlns="http://www.w3.org/2000/svg">
<path d="M23.125 0.850103C22.8571 0.666076 22.5482 0.55039 22.2253 0.513133C21.9024 0.475876 21.5753 0.518179 21.2725 0.636353C19.5187 1.31885 15.9775 2.46385 12 2.46385C8.0225 2.46385 4.48 1.31885 2.72375 0.636353C2.42073 0.518725 2.09361 0.476727 1.7707 0.513994C1.44779 0.551261 1.13884 0.666669 0.870578 0.850228C0.602318 1.03379 0.382841 1.27996 0.231147 1.56745C0.0794529 1.85493 0.000114288 2.17505 0 2.5001V9.47135C0 13.9514 1.20625 18.1776 3.3975 21.3689C5.6675 24.6764 8.7225 26.4939 12 26.4939C15.2775 26.4939 18.3325 24.6726 20.6025 21.3689C22.7938 18.1801 24 13.9539 24 9.47385V2.5001C23.9994 2.17464 23.9194 1.85423 23.7669 1.56669C23.6144 1.27916 23.3941 1.03318 23.125 0.850103ZM5.75 13.1664C5.57313 13.3653 5.32449 13.4858 5.05878 13.5014C4.79306 13.5169 4.53204 13.4263 4.33313 13.2495C4.13421 13.0726 4.01371 12.824 3.99812 12.5583C3.98253 12.2925 4.07313 12.0315 4.25 11.8326C4.96875 11.0351 6.2725 10.5001 7.5 10.5001C8.7275 10.5001 10.0312 11.0351 10.75 11.8326C10.9269 12.0315 11.0175 12.2925 11.0019 12.5583C10.9863 12.824 10.8658 13.0726 10.6669 13.2495C10.5684 13.3371 10.4536 13.4044 10.3291 13.4476C10.2046 13.4908 10.0728 13.5091 9.94122 13.5014C9.67551 13.4858 9.42687 13.3653 9.25 13.1664C8.915 12.7914 8.14375 12.5001 7.5 12.5001C6.85625 12.5001 6.08 12.7926 5.75 13.1664ZM17.0613 19.1489C16.4405 19.8853 15.6664 20.4773 14.7931 20.8834C13.9197 21.2895 12.9682 21.5 12.005 21.5C11.0418 21.5 10.0903 21.2895 9.21693 20.8834C8.34356 20.4773 7.56946 19.8853 6.94875 19.1489C6.85403 19.0508 6.78037 18.9344 6.7323 18.8068C6.68422 18.6792 6.66274 18.5431 6.66918 18.4069C6.67563 18.2707 6.70985 18.1373 6.76976 18.0148C6.82966 17.8923 6.91398 17.7834 7.01753 17.6947C7.12109 17.606 7.24168 17.5394 7.37191 17.499C7.50214 17.4587 7.63925 17.4453 7.77482 17.4599C7.91039 17.4744 8.04155 17.5166 8.16024 17.5837C8.27892 17.6508 8.38264 17.7414 8.465 17.8501C8.89781 18.3668 9.43863 18.7824 10.0494 19.0675C10.6601 19.3526 11.326 19.5004 12 19.5004C12.674 19.5004 13.3399 19.3526 13.9506 19.0675C14.5614 18.7824 15.1022 18.3668 15.535 17.8501C15.7072 17.6484 15.9525 17.5233 16.217 17.5025C16.4814 17.4816 16.7433 17.5666 16.945 17.7389C17.1467 17.9111 17.2718 18.1564 17.2926 18.4208C17.3135 18.6852 17.2285 18.9471 17.0562 19.1489H17.0613ZM19.6675 13.2501C19.5696 13.3377 19.4554 13.4052 19.3314 13.4487C19.2074 13.4921 19.0761 13.5107 18.9449 13.5034C18.8138 13.4961 18.6853 13.463 18.5669 13.406C18.4485 13.3491 18.3426 13.2693 18.255 13.1714C17.92 12.7964 17.1487 12.5051 16.505 12.5051C15.8612 12.5051 15.085 12.7976 14.755 13.1714C14.6671 13.2702 14.5606 13.3507 14.4416 13.4084C14.3225 13.466 14.1933 13.4997 14.0613 13.5074C13.9292 13.5151 13.797 13.4968 13.672 13.4534C13.5471 13.41 13.4319 13.3424 13.3331 13.2545C13.2343 13.1666 13.1538 13.0601 13.0961 12.941C13.0385 12.822 13.0048 12.6928 12.9971 12.5608C12.9894 12.4287 13.0077 12.2965 13.0511 12.1715C13.0945 12.0466 13.1621 11.9314 13.25 11.8326C13.9637 11.0351 15.2675 10.5001 16.5 10.5001C17.7325 10.5001 19.0312 11.0351 19.75 11.8326C19.8382 11.9309 19.906 12.0456 19.9496 12.1702C19.9932 12.2948 20.0117 12.4268 20.004 12.5585C19.9963 12.6903 19.9626 12.8193 19.9049 12.938C19.8471 13.0567 19.7665 13.1627 19.6675 13.2501Z" fill="#742628"/>
</svg>
