<svg width="26" height="27" viewBox="0 0 26 27" fill="none" xmlns="http://www.w3.org/2000/svg">
<path d="M25.8 24.8987C25.9118 25.0473 25.9799 25.224 25.9968 25.4092C26.0137 25.5944 25.9786 25.7806 25.8955 25.9469C25.8124 26.1132 25.6846 26.2531 25.5264 26.3508C25.3682 26.4485 25.1859 26.5001 25 26.4999H1C0.814289 26.4999 0.632245 26.4482 0.474269 26.3506C0.316293 26.253 0.188626 26.1133 0.105573 25.9472C0.0225203 25.781 -0.0126368 25.5951 0.00404117 25.4101C0.0207191 25.2252 0.0885733 25.0485 0.2 24.8999C1.08548 23.7128 2.26628 22.778 3.625 22.1887C2.88022 21.5089 2.35837 20.6199 2.12794 19.6382C1.8975 18.6566 1.96926 17.6282 2.33379 16.688C2.69832 15.7479 3.33858 14.9399 4.17054 14.3702C5.0025 13.8005 5.98728 13.4956 6.99563 13.4956C8.00397 13.4956 8.98875 13.8005 9.82071 14.3702C10.6527 14.9399 11.2929 15.7479 11.6575 16.688C12.022 17.6282 12.0937 18.6566 11.8633 19.6382C11.6329 20.6199 11.111 21.5089 10.3663 22.1887C11.3465 22.6124 12.2373 23.2186 12.9913 23.9749C13.7452 23.2186 14.636 22.6124 15.6162 22.1887C14.8715 21.5089 14.3496 20.6199 14.1192 19.6382C13.8888 18.6566 13.9605 17.6282 14.325 16.688C14.6896 15.7479 15.3298 14.9399 16.1618 14.3702C16.9938 13.8005 17.9785 13.4956 18.9869 13.4956C19.9952 13.4956 20.98 13.8005 21.812 14.3702C22.6439 14.9399 23.2842 15.7479 23.6487 16.688C24.0132 17.6282 24.085 18.6566 23.8546 19.6382C23.6241 20.6199 23.1023 21.5089 22.3575 22.1887C23.7225 22.7749 24.9097 23.7094 25.8 24.8987ZM0.400001 13.2999C0.505058 13.3787 0.624606 13.4361 0.75182 13.4687C0.879033 13.5012 1.01142 13.5085 1.14142 13.4899C1.27142 13.4713 1.39649 13.4273 1.50949 13.3604C1.62249 13.2935 1.72121 13.205 1.8 13.0999C2.40546 12.2927 3.19055 11.6374 4.09311 11.1862C4.99567 10.7349 5.99091 10.4999 7 10.4999C8.00909 10.4999 9.00433 10.7349 9.90689 11.1862C10.8094 11.6374 11.5945 12.2927 12.2 13.0999C12.2931 13.2241 12.4139 13.3249 12.5528 13.3944C12.6916 13.4638 12.8448 13.4999 13 13.4999C13.1552 13.4999 13.3084 13.4638 13.4472 13.3944C13.5861 13.3249 13.7069 13.2241 13.8 13.0999C14.4055 12.2927 15.1906 11.6374 16.0931 11.1862C16.9957 10.7349 17.9909 10.4999 19 10.4999C20.0091 10.4999 21.0043 10.7349 21.9069 11.1862C22.8095 11.6374 23.5945 12.2927 24.2 13.0999C24.2789 13.205 24.3777 13.2935 24.4907 13.3604C24.6038 13.4272 24.729 13.4712 24.859 13.4897C24.9891 13.5082 25.1215 13.5009 25.2488 13.4683C25.376 13.4356 25.4956 13.3782 25.6006 13.2993C25.7057 13.2204 25.7942 13.1216 25.8611 13.0086C25.9279 12.8955 25.9719 12.7704 25.9904 12.6403C26.0089 12.5102 26.0016 12.3778 25.969 12.2506C25.9363 12.1233 25.8789 12.0037 25.8 11.8987C24.9145 10.7119 23.7337 9.77754 22.375 9.18869C23.1198 8.50894 23.6416 7.61989 23.8721 6.63824C24.1025 5.65658 24.0307 4.62819 23.6662 3.68804C23.3017 2.7479 22.6614 1.93994 21.8295 1.37021C20.9975 0.800478 20.0127 0.495605 19.0044 0.495605C17.996 0.495605 17.0113 0.800478 16.1793 1.37021C15.3473 1.93994 14.7071 2.7479 14.3425 3.68804C13.978 4.62819 13.9063 5.65658 14.1367 6.63824C14.3671 7.61989 14.889 8.50894 15.6338 9.18869C14.6535 9.61241 13.7627 10.2186 13.0088 10.9749C12.2548 10.2186 11.364 9.61241 10.3837 9.18869C11.1285 8.50894 11.6504 7.61989 11.8808 6.63824C12.1112 5.65658 12.0395 4.62819 11.675 3.68804C11.3104 2.7479 10.6702 1.93994 9.83821 1.37021C9.00625 0.800478 8.02147 0.495605 7.01313 0.495605C6.00479 0.495605 5.02 0.800478 4.18804 1.37021C3.35608 1.93994 2.71582 2.7479 2.35129 3.68804C1.98676 4.62819 1.915 5.65658 2.14544 6.63824C2.37587 7.61989 2.89772 8.50894 3.6425 9.18869C2.2774 9.77544 1.09032 10.7104 0.2 11.8999C0.121207 12.005 0.0638783 12.1245 0.0312867 12.2518C-0.0013049 12.379 -0.00852073 12.5114 0.010051 12.6414C0.0286227 12.7714 0.0726184 12.8964 0.139526 13.0094C0.206434 13.1224 0.294943 13.2211 0.400001 13.2999Z" fill="#742628"/>
</svg>
