<svg width="30" height="23" viewBox="0 0 30 23" fill="none" xmlns="http://www.w3.org/2000/svg">
<path d="M29 20.5H28V13.5C28 12.9696 27.7893 12.4609 27.4142 12.0858C27.0391 11.7107 26.5304 11.5 26 11.5H21V2.5C21 1.96957 20.7893 1.46086 20.4142 1.08579C20.0391 0.710714 19.5304 0.5 19 0.5H11C10.4696 0.5 9.96086 0.710714 9.58579 1.08579C9.21071 1.46086 9 1.96957 9 2.5V6.5H4C3.46957 6.5 2.96086 6.71071 2.58579 7.08579C2.21071 7.46086 2 7.96957 2 8.5V20.5H1C0.734784 20.5 0.48043 20.6054 0.292893 20.7929C0.105357 20.9804 0 21.2348 0 21.5C0 21.7652 0.105357 22.0196 0.292893 22.2071C0.48043 22.3946 0.734784 22.5 1 22.5H29C29.2652 22.5 29.5196 22.3946 29.7071 22.2071C29.8946 22.0196 30 21.7652 30 21.5C30 21.2348 29.8946 20.9804 29.7071 20.7929C29.5196 20.6054 29.2652 20.5 29 20.5ZM9 20.5H4V8.5H9V20.5ZM16.5 12.5C16.5 12.7652 16.3946 13.0196 16.2071 13.2071C16.0196 13.3946 15.7652 13.5 15.5 13.5C15.2348 13.5 14.9804 13.3946 14.7929 13.2071C14.6054 13.0196 14.5 12.7652 14.5 12.5V8.8875L14.3162 8.94875C14.1917 8.99028 14.0601 9.00686 13.9291 8.99755C13.7981 8.98825 13.6702 8.95322 13.5528 8.89449C13.4353 8.83576 13.3305 8.75446 13.2445 8.65525C13.1584 8.55603 13.0928 8.44084 13.0513 8.31625C13.0097 8.19166 12.9931 8.06011 13.0024 7.92911C13.0118 7.79811 13.0468 7.67022 13.1055 7.55276C13.1642 7.43529 13.2455 7.33054 13.3448 7.24449C13.444 7.15844 13.5592 7.09278 13.6838 7.05125L15.1838 6.55125C15.3341 6.50114 15.4942 6.48747 15.6508 6.51136C15.8075 6.53526 15.9562 6.59604 16.0847 6.6887C16.2133 6.78136 16.318 6.90323 16.3902 7.04429C16.4624 7.18535 16.5 7.34154 16.5 7.5V12.5ZM26 20.5H21V13.5H26V20.5Z" fill="#742628"/>
</svg>
