<svg width="20" height="22" viewBox="0 0 20 22" fill="none" xmlns="http://www.w3.org/2000/svg">
<path d="M18.125 2.25H15.6875V1.4375C15.6875 1.22201 15.6019 1.01535 15.4495 0.862976C15.2972 0.710602 15.0905 0.625 14.875 0.625C14.6595 0.625 14.4528 0.710602 14.3005 0.862976C14.1481 1.01535 14.0625 1.22201 14.0625 1.4375V2.25H5.9375V1.4375C5.9375 1.22201 5.8519 1.01535 5.69952 0.862976C5.54715 0.710602 5.34049 0.625 5.125 0.625C4.90951 0.625 4.70285 0.710602 4.55048 0.862976C4.3981 1.01535 4.3125 1.22201 4.3125 1.4375V2.25H1.875C1.44402 2.25 1.0307 2.4212 0.725951 2.72595C0.421205 3.0307 0.25 3.44402 0.25 3.875V20.125C0.25 20.556 0.421205 20.9693 0.725951 21.274C1.0307 21.5788 1.44402 21.75 1.875 21.75H18.125C18.556 21.75 18.9693 21.5788 19.274 21.274C19.5788 20.9693 19.75 20.556 19.75 20.125V3.875C19.75 3.44402 19.5788 3.0307 19.274 2.72595C18.9693 2.4212 18.556 2.25 18.125 2.25ZM4.3125 5.5V4.6875C4.3125 4.47201 4.3981 4.26535 4.55048 4.11298C4.70285 3.9606 4.90951 3.875 5.125 3.875C5.34049 3.875 5.54715 3.9606 5.69952 4.11298C5.8519 4.26535 5.9375 4.47201 5.9375 4.6875V5.5C5.9375 5.71549 5.8519 5.92215 5.69952 6.07452C5.54715 6.2269 5.34049 6.3125 5.125 6.3125C4.90951 6.3125 4.70285 6.2269 4.55048 6.07452C4.3981 5.92215 4.3125 5.71549 4.3125 5.5ZM15.134 11.6648L12.6498 13.7154L13.4074 16.7734C13.4267 16.8511 13.4226 16.9327 13.3957 17.008C13.3688 17.0834 13.3202 17.1491 13.2561 17.197C13.1858 17.2488 13.1007 17.2769 13.0134 17.2772C12.9419 17.2768 12.8719 17.2575 12.8102 17.2213L10 15.573L7.19281 17.2254C7.12355 17.2664 7.04366 17.286 6.96328 17.2815C6.88289 17.2771 6.80564 17.2489 6.74133 17.2004C6.67701 17.152 6.62854 17.0856 6.60206 17.0095C6.57557 16.9335 6.57227 16.8513 6.59258 16.7734L7.35023 13.7113L4.86602 11.6648C4.8033 11.6133 4.75746 11.5442 4.73438 11.4664C4.71129 11.3886 4.71204 11.3057 4.73652 11.2284C4.761 11.151 4.80808 11.0827 4.87171 11.0324C4.93534 10.982 5.01259 10.9518 5.09352 10.9458L8.36789 10.6929L9.62727 7.77703C9.65877 7.70435 9.71084 7.64246 9.77707 7.59899C9.84329 7.55552 9.92078 7.53236 10 7.53236C10.0792 7.53236 10.1567 7.55552 10.2229 7.59899C10.2892 7.64246 10.3412 7.70435 10.3727 7.77703L11.6321 10.6929L14.9065 10.9458C14.9874 10.9518 15.0647 10.982 15.1283 11.0324C15.1919 11.0827 15.239 11.151 15.2635 11.2284C15.288 11.3057 15.2887 11.3886 15.2656 11.4664C15.2425 11.5442 15.1967 11.6133 15.134 11.6648ZM15.6875 5.5C15.6875 5.71549 15.6019 5.92215 15.4495 6.07452C15.2972 6.2269 15.0905 6.3125 14.875 6.3125C14.6595 6.3125 14.4528 6.2269 14.3005 6.07452C14.1481 5.92215 14.0625 5.71549 14.0625 5.5V4.6875C14.0625 4.47201 14.1481 4.26535 14.3005 4.11298C14.4528 3.9606 14.6595 3.875 14.875 3.875C15.0905 3.875 15.2972 3.9606 15.4495 4.11298C15.6019 4.26535 15.6875 4.47201 15.6875 4.6875V5.5Z" fill="#AA70BF"/>
</svg>
